<?xml version="1.0" encoding="UTF-8" standalone="no"?>
<!-- Created with Inkscape (http://www.inkscape.org/) -->

<svg
   xmlns:dc="http://purl.org/dc/elements/1.1/"
   xmlns:cc="http://creativecommons.org/ns#"
   xmlns:rdf="http://www.w3.org/1999/02/22-rdf-syntax-ns#"
   xmlns:svg="http://www.w3.org/2000/svg"
   xmlns="http://www.w3.org/2000/svg"
   xmlns:sodipodi="http://sodipodi.sourceforge.net/DTD/sodipodi-0.dtd"
   xmlns:inkscape="http://www.inkscape.org/namespaces/inkscape"
   id="svg2"
   height="185.63437mm"
   width="207.3782mm"
   version="1.1"
   viewBox="0 0 734.80466 657.75957"
   inkscape:version="0.91 r13725"
   sodipodi:docname="polar-bear.svg">
  <defs
     id="defs16" />
  <sodipodi:namedview
     pagecolor="#ffffff"
     bordercolor="#666666"
     borderopacity="1"
     objecttolerance="10000"
     gridtolerance="10"
     guidetolerance="10"
     inkscape:pageopacity="0"
     inkscape:pageshadow="2"
     inkscape:window-width="1680"
     inkscape:window-height="1050"
     id="namedview14"
     showgrid="false"
     fit-margin-bottom="-0.3"
     fit-margin-top="0"
     fit-margin-left="0"
     fit-margin-right="0"
     inkscape:zoom="0.44851478"
     inkscape:cx="578.13499"
     inkscape:cy="-45.628692"
     inkscape:window-x="1920"
     inkscape:window-y="0"
     inkscape:window-maximized="0"
     inkscape:current-layer="svg2" />
  <metadata
     id="metadata7">
    <rdf:RDF>
      <cc:Work
         rdf:about="">
        <dc:format>image/svg+xml</dc:format>
        <dc:type
           rdf:resource="http://purl.org/dc/dcmitype/StillImage" />
        <dc:title></dc:title>
      </cc:Work>
    </rdf:RDF>
  </metadata>
  <g
     id="layer1"
     transform="matrix(1.3612231,0,0,1.3612231,-150.1847,-300.04093)">
    <g
       id="g3570">
      <g
         id="g3554"
         transform="translate(26.264,-46.467)">
        <path
           id="path3568"
           d="m 94.812,748.99 c -3.9479,-2.3687 -6.5624,-5.3114 -8.9759,-10.103 -1.8437,-3.66 -1.8833,-3.8418 -1.6946,-7.7889 0.1886,-3.9447 0.27296,-4.1934 3.5247,-10.391 1.8323,-3.4921 5.4086,-9.9544 7.9473,-14.361 2.5387,-4.4064 6.0656,-10.611 7.8377,-13.788 1.7721,-3.1773 6.0499,-10.706 9.5063,-16.73 3.4564,-6.0243 7.2061,-12.65 8.3327,-14.723 1.1266,-2.0736 3.1419,-5.5728 4.4784,-7.776 1.3365,-2.2032 3.7715,-6.4446 5.411,-9.4254 1.6395,-2.9808 4.2904,-7.6464 5.8908,-10.368 1.6004,-2.7216 3.9265,-6.751 5.169,-8.9541 1.2425,-2.2032 3.3725,-5.9144 4.7333,-8.2472 1.3608,-2.3328 3.083,-5.3428 3.8272,-6.6888 4.3628,-7.8913 6.1499,-11.049 7.6833,-13.576 0.94379,-1.5552 1.9793,-3.3578 2.3012,-4.0058 0.32188,-0.648 1.3495,-2.4506 2.2837,-4.0058 0.93415,-1.5552 3.7137,-6.4328 6.1769,-10.839 2.4631,-4.4064 4.7358,-8.3297 5.0505,-8.7185 0.31463,-0.38879 2.7466,-4.6754 5.4044,-9.5259 2.6578,-4.8504 5.1286,-9.0648 5.4906,-9.3653 0.36206,-0.30048 0.65828,-0.8021 0.65828,-1.1147 0,-0.31262 0.59991,-1.5061 1.3331,-2.6521 0.73322,-1.146 3.5224,-6.007 6.1982,-10.802 2.6758,-4.7952 6.1409,-10.839 7.7003,-13.431 2.5382,-4.2189 7.2792,-12.799 9.8956,-17.908 0.53092,-1.0368 1.4566,-2.4846 2.0571,-3.2172 0.60051,-0.73268 1.0918,-1.5575 1.0918,-1.833 0,-0.27544 0.66769,-1.5846 1.4838,-2.9093 0.81607,-1.3247 3.8597,-6.6499 6.7637,-11.834 6.4961,-11.596 19.059,-33.648 20.808,-36.523 0.70942,-1.1664 3.612,-6.2561 6.4501,-11.31 8.4521,-15.052 9.924,-17.619 10.948,-19.094 0.53685,-0.77339 2.5338,-4.2691 4.4376,-7.7683 1.9038,-3.4992 5.0536,-9.1191 6.9996,-12.489 5.4771,-9.484 7.8009,-13.544 16.319,-28.512 4.3514,-7.6464 8.3968,-14.645 8.9897,-15.552 1.1334,-1.7341 10.122,-17.332 15.074,-26.156 1.5998,-2.8512 4.3721,-7.693 6.1606,-10.76 1.7884,-3.0666 4.1747,-7.202 5.3027,-9.1898 4.1811,-7.3677 9.7746,-17.138 11.18,-19.529 0.79701,-1.3557 2.671,-4.5856 4.1644,-7.1776 3.3576,-5.8276 6.5819,-9.2313 10.751,-11.35 2.9065,-1.4767 3.519,-1.6102 7.3863,-1.6102 4.0598,0 4.3545,0.0742 7.9056,1.989 5.16,2.7825 7.0252,4.923 11.521,13.222 2.1379,3.946 5.7862,10.568 8.1072,14.715 10.061,17.977 15.871,28.498 15.871,28.741 0,0.14406 0.49736,1.0526 1.1052,2.0191 0.60788,0.96644 2.7634,4.7262 4.7901,8.3549 3.3558,6.0085 6.0762,10.809 11.143,19.661 0.99683,1.7416 1.8124,3.2688 1.8124,3.3937 0,0.1249 1.2398,2.4112 2.7552,5.0806 6.6142,11.651 13.535,24.049 17.046,30.538 1.4729,2.7216 3.9823,7.1124 5.5764,9.7574 1.5941,2.645 2.8983,4.9411 2.8983,5.1024 0,0.16131 2.3035,4.3594 5.1189,9.329 2.8154,4.9697 8.4656,15.08 12.556,22.467 9.2966,16.789 15.184,27.283 18.376,32.753 1.3613,2.3328 4.3779,7.7406 6.7036,12.017 2.3257,4.2768 5.4374,9.8686 6.9148,12.426 1.4774,2.5576 7.4708,13.267 13.319,23.799 5.8478,10.532 11.746,21.058 13.106,23.39 1.3604,2.3328 3.8464,6.7863 5.5244,9.8967 2.8031,5.1959 11.982,21.736 20.399,36.759 10.455,18.66 14.893,26.639 20.971,37.702 3.7025,6.7392 8.1565,14.798 9.8976,17.908 1.7412,3.1104 4.721,8.5182 6.6218,12.017 1.9008,3.4992 5.6136,10.179 8.2506,14.845 2.637,4.6656 6.0281,10.816 7.5357,13.667 1.5076,2.8512 4.7932,8.7892 7.3013,13.196 13.204,23.198 13.433,23.714 13.407,30.161 -0.0207,4.9537 -0.76053,6.9757 -4.3184,11.8 -2.0241,2.7446 -2.7134,3.2885 -6.5602,5.1766 l -4.2984,2.1097 -255.37,-0.005 -255.37,-0.005 -3.145,-1.887 z m 246.12,-25.88 c 0.83046,-0.83044 1.3776,-1.8742 1.3776,-2.6282 0,-0.75397 -0.5471,-1.7978 -1.3776,-2.6282 -0.83045,-0.83046 -1.8743,-1.3776 -2.6282,-1.3776 -0.75397,0 -1.7978,0.5471 -2.6282,1.3776 -1.8776,1.8776 -1.8519,3.7947 0.0724,5.414 1.9001,1.5988 3.4756,1.551 5.1841,-0.1575 z m 50.426,-0.47127 c 0.83046,-0.83044 1.3776,-1.8742 1.3776,-2.6282 0,-0.75397 -0.5471,-1.7978 -1.3776,-2.6282 -0.83046,-0.83046 -1.8743,-1.3776 -2.6282,-1.3776 -0.75397,0 -1.7978,0.5471 -2.6282,1.3776 -0.83046,0.83046 -1.3776,1.8743 -1.3776,2.6282 0,0.75397 0.5471,1.7978 1.3776,2.6282 0.83046,0.83048 1.8743,1.3776 2.6282,1.3776 0.75398,0 1.7978,-0.54709 2.6282,-1.3776 z m 84.557,-45.744 c 1.8144,-0.23916 6.0558,-0.57888 9.4254,-0.75495 3.3696,-0.17606 6.4779,-0.50051 6.9073,-0.72101 1.0048,-0.51587 0.70464,-3.1888 -0.84671,-7.5408 -1.12,-3.1419 -1.4125,-5.1208 -0.75882,-5.1342 0.1944,-0.004 0.65839,-0.20017 1.0311,-0.43599 0.56131,-0.35517 0.44308,-0.76723 -0.68872,-2.4004 -1.2626,-1.8219 -1.3051,-2.0164 -0.55982,-2.5614 1.1121,-0.81322 1.0301,-1.1528 -0.71243,-2.9507 -1.3515,-1.3944 -1.4515,-1.6752 -0.90734,-2.5466 0.52787,-0.84526 0.47773,-1.1219 -0.3661,-2.0202 -1.2189,-1.2974 -1.2294,-1.8679 -0.0496,-2.6898 0.8769,-0.61084 0.71576,-0.82886 -2.9161,-3.9455 -5.3499,-4.5909 -5.5524,-4.8114 -5.5524,-6.0444 0,-0.60282 -0.47716,-1.5486 -1.0604,-2.1017 -0.5832,-0.55312 -1.7847,-2.4457 -2.67,-4.2058 -0.88529,-1.76 -1.9134,-3.7982 -2.2848,-4.5293 -0.37137,-0.73107 -0.56115,-1.7654 -0.42174,-2.2985 0.13941,-0.5331 -0.069,-1.4614 -0.46309,-2.0629 -0.39412,-0.60149 -0.65654,-1.6879 -0.58317,-2.4142 0.0734,-0.72632 -0.25091,-1.9021 -0.72063,-2.6129 -0.46971,-0.71079 -0.73998,-1.5895 -0.6006,-1.9528 0.13938,-0.36322 -0.26145,-1.6276 -0.89073,-2.8097 -0.62928,-1.1821 -1.1446,-2.6362 -1.1452,-3.2312 -0.002,-1.7402 -5.0117,-16.05 -7.6122,-21.742 -1.3138,-2.8758 -3.4981,-6.8263 -4.8541,-8.7789 -5.0928,-7.3337 -16.869,-15.895 -25.234,-18.346 -10.136,-2.9698 -17.652,-4.0386 -25.335,-3.6027 -3.1775,0.18026 -6.9948,0.51047 -8.4829,0.73378 -1.4881,0.22332 -4.9324,0.75139 -7.6539,1.1735 -5.6687,0.87918 -15.364,2.0876 -19.652,2.4494 -2.541,0.2144 -3.209,0.0861 -5.1231,-0.98368 -3.1938,-1.785 -7.9089,-3.118 -11.029,-3.118 -3.627,0 -9.9587,1.1392 -13.443,2.4186 -2.7009,0.9917 -3.4402,1.0336 -16.494,0.93515 -12.258,-0.0925 -25.039,0.32541 -36.204,1.1836 -3.8899,0.29901 -3.9234,0.292 -5.5875,-1.1691 l -1.6741,-1.4699 -2.3766,2.5536 c -1.6557,1.779 -2.9258,2.6906 -4.1868,3.0052 -0.99559,0.24839 -3.2947,0.80083 -5.109,1.2277 -4.379,1.0301 -6.4007,2.075 -7.5403,3.8969 -0.75064,1.2 -2.173,2.0582 -6.9862,4.215 -8.0267,3.5967 -9.2742,5.0625 -7.1664,8.4205 0.63756,1.0157 9.102,5.7683 13.124,7.3684 2.7924,1.1111 4.5846,1.4426 24.121,4.461 5.7193,0.88364 13.446,2.6819 17.908,4.168 1.8144,0.60423 4.5318,1.3513 6.0387,1.6601 1.5788,0.32358 2.854,0.85923 3.0094,1.2641 0.14828,0.38639 -0.37285,2.8604 -1.158,5.4978 -2.5314,8.5028 -2.6263,9.0644 -2.3195,13.735 0.27708,4.2182 0.23661,4.4826 -0.9516,6.2159 -3.2615,4.7576 -8.1535,17.075 -8.1535,20.529 0,1.9006 -2.9791,8.3115 -5.2076,11.207 -1.2969,1.6848 -2.7234,3.6435 -3.1701,4.3528 -0.95499,1.5164 -3.2095,2.5126 -7.1076,3.1403 -4.2169,0.67911 -5.7219,1.6052 -5.7219,3.5208 0,0.90774 0.35597,1.8864 0.84812,2.3318 1.863,1.686 8.7273,3.4075 14.468,3.6285 7.3363,0.28245 8.9833,0.21981 11.695,-0.44472 3.1857,-0.78077 4.5641,-2.172 4.5641,-4.6067 0,-1.8268 0.70505,-3.4007 1.9053,-4.2532 0.44723,-0.31766 0.95336,-1.325 1.1247,-2.2385 0.27303,-1.4554 0.48396,-1.661 1.7041,-1.661 1.048,0 1.3924,-0.21888 1.3924,-0.88484 0,-1.026 0.78094,-1.7681 2.1207,-2.0152 0.66227,-0.12218 1.0126,-0.65199 1.1782,-1.7817 0.16575,-1.131 0.62744,-1.8282 1.5568,-2.351 0.72665,-0.40873 1.7923,-1.5914 2.3682,-2.6282 0.76191,-1.3718 1.3967,-1.9257 2.3312,-2.0342 0.91578,-0.10634 1.2842,-0.41699 1.2842,-1.0829 0,-0.51356 0.53018,-1.4251 1.1782,-2.0256 0.648,-0.60055 1.1782,-1.4207 1.1782,-1.8225 0,-0.40186 0.42208,-1.2258 0.93795,-1.831 2.2641,-2.6562 3.0405,-3.9447 2.9219,-4.8493 -0.0698,-0.53265 0.16334,-1.3654 0.51808,-1.8505 0.53677,-0.73408 0.81664,-0.79021 1.668,-0.33456 0.97503,0.52182 1.0238,0.45274 1.0398,-1.472 0.009,-1.1107 0.31978,-2.5496 0.69021,-3.1976 0.37042,-0.648 0.68102,-1.825 0.6902,-2.6156 0.02,-1.7183 0.75865,-2.5684 2.2317,-2.5684 0.59616,0 1.0839,-0.18111 1.0839,-0.40246 0,-1.0338 2.3922,-2.8964 3.7198,-2.8964 0.77468,0 1.5396,-0.21207 1.6998,-0.47127 0.97083,-1.5708 3.5769,1.579 6.8234,8.2472 4.3114,8.8553 5.1326,12.507 5.5198,24.546 0.24786,7.7049 0.18268,9.2585 -0.42751,10.19 -0.80791,1.233 -4.1328,2.81 -7.6743,3.64 -5.5832,1.3084 -7.2384,3.3214 -4.69,5.7037 1.1956,1.1177 1.4561,1.1574 6.737,1.0261 3.0213,-0.0751 8.5348,0.0957 12.252,0.3794 8.3627,0.63833 9.0288,0.39131 9.0288,-3.348 0,-2.9654 0.62813,-4.1996 2.1373,-4.1996 1.2616,0 1.3806,-0.42069 0.74565,-2.6347 -0.4616,-1.6095 0.0668,-3.0205 1.1311,-3.0205 0.50511,0 0.64327,-0.60427 0.56567,-2.4742 -0.0939,-2.2626 -0.009,-2.4874 0.98708,-2.6286 0.97516,-0.1382 1.0495,-0.31166 0.70691,-1.6494 -0.21057,-0.82225 -0.36405,-3.9854 -0.34108,-7.0291 0.0351,-4.6543 0.17826,-5.6849 0.90031,-6.4828 0.83068,-0.9179 0.8302,-1.0321 -0.0148,-3.5181 -0.84342,-2.4813 -0.84408,-2.6018 -0.0193,-3.5132 0.67118,-0.74165 0.78884,-1.3788 0.54941,-2.9755 -0.21553,-1.4372 -0.10369,-2.3045 0.38221,-2.964 0.68035,-0.92338 0.70653,-0.92158 2.7559,0.18993 1.689,0.91608 2.2519,1.0243 3.0651,0.58909 1.3524,-0.7238 1.4121,-0.70806 2.7367,0.72114 1.0676,1.1519 1.2603,1.2018 2.3629,0.61171 0.95578,-0.51152 1.388,-0.52548 2.1197,-0.0685 0.51111,0.31919 1.453,0.44005 2.1216,0.27223 0.84672,-0.21251 1.9255,0.0906 3.6467,1.0248 3.2824,1.7815 6.7694,4.3128 7.0892,5.1463 0.47749,1.2443 -0.10609,24.097 -0.6456,25.281 -0.69154,1.5178 -2.9597,3.0116 -6.3371,4.1735 -3.3715,1.16 -4.4958,2.1044 -4.4958,3.7766 0,1.8435 1.2578,2.7086 5.119,3.5208 4.1038,0.86327 9.2325,0.92115 14.474,0.16334 3.5491,-0.51315 4.1326,-0.47457 7.3735,0.48754 2.7128,0.80535 3.8062,0.93573 4.771,0.56891 1.1497,-0.43712 1.2517,-0.69154 1.2517,-3.1236 0,-2.2414 0.14303,-2.6852 0.93196,-2.8915 0.83699,-0.21887 0.90859,-0.54794 0.70266,-3.229 -0.19266,-2.5081 -0.0968,-3.0601 0.59967,-3.4533 0.78085,-0.44083 0.76519,-0.64067 -0.26971,-3.4425 -1.7608,-4.7672 -1.8038,-5.4718 -0.36742,-6.0179 1.454,-0.5528 1.4079,-0.27373 0.49004,-2.9675 -1.0077,-2.9575 -0.40251,-4.1214 2.143,-4.1214 1.0124,0 1.9459,-0.17025 2.0745,-0.37834 0.1286,-0.20808 -0.41265,-1.3722 -1.2028,-2.5868 -2.0595,-3.1661 -1.0583,-4.6552 1.9671,-2.9257 1.8039,1.0312 3.1175,0.84794 4.1578,-0.58012 l 0.93753,-1.287 2.5185,1.6974 c 1.3852,0.93358 3.6805,2.308 5.1008,3.0543 1.6846,0.88517 5.2926,3.9782 10.378,8.8972 4.2878,4.1472 8.9048,8.5211 10.26,9.7199 3.6158,3.1987 3.434,4.3727 -1.1886,7.6778 -2.2487,1.6078 -2.4742,1.934 -2.4742,3.5803 0,2.6172 0.90918,3.2954 4.3929,3.277 1.6015,-0.008 4.3963,-0.21109 6.2107,-0.45024 z m -89.75,-323.74 c 0.83046,-0.83046 1.3776,-1.8743 1.3776,-2.6282 0,-1.6532 -2.3526,-4.0058 -4.0058,-4.0058 -1.6532,0 -4.0058,2.3526 -4.0058,4.0058 0,1.6532 2.3526,4.0058 4.0058,4.0058 0.75397,0 1.7978,-0.5471 2.6282,-1.3776 z m -51.368,-1.4138 c 0.83046,-0.83046 1.3776,-1.8743 1.3776,-2.6282 0,-1.6532 -2.3526,-4.0058 -4.0058,-4.0058 -1.6532,0 -4.0058,2.3526 -4.0058,4.0058 0,1.6532 2.3526,4.0058 4.0058,4.0058 0.75397,0 1.7978,-0.5471 2.6282,-1.3776 z"
           inkscape:connector-curvature="0"
           style="fill:#fba2a0" />
        <path
           id="path3566"
           d="m 95.129,748.6 c -3.7783,-2.4004 -7.0936,-6.1727 -9.0757,-10.327 -1.5071,-3.1586 -1.6156,-3.6876 -1.4596,-7.1215 0.15278,-3.3642 0.39667,-4.165 2.6207,-8.6053 1.3487,-2.6928 4.8233,-9.0314 7.7212,-14.086 9.1496,-15.958 10.326,-18.026 10.326,-18.154 0,-0.0687 1.5143,-2.7454 3.365,-5.9483 1.8508,-3.2029 3.7846,-6.5656 4.2974,-7.4728 0.51277,-0.90719 2.1474,-3.7702 3.6325,-6.3622 1.4851,-2.592 3.695,-6.5153 4.9109,-8.7185 1.2159,-2.2032 2.4675,-4.4224 2.7813,-4.9316 1.997,-3.2399 4.3453,-7.314 6.9366,-12.034 1.6364,-2.9808 4.2876,-7.6464 5.8915,-10.368 1.604,-2.7216 4.039,-6.963 5.4112,-9.4254 1.3722,-2.4624 2.8888,-5.0517 3.3702,-5.754 0.4814,-0.7023 0.87527,-1.4118 0.87527,-1.5767 0,-0.16488 0.4454,-0.9253 0.98978,-1.6898 0.54439,-0.76452 1.7638,-2.8544 2.7098,-4.6442 0.94601,-1.7898 2.8334,-5.1717 4.1942,-7.5153 1.3608,-2.3436 2.4742,-4.3792 2.4742,-4.5234 0,-0.14424 0.84828,-1.5394 1.8851,-3.1003 1.03682,-1.5609 1.8851,-3.1286 1.8851,-3.4838 0,-0.35517 0.19832,-0.76833 0.44071,-0.91814 0.24239,-0.1498 1.0557,-1.3817 1.8075,-2.7376 0.75172,-1.3559 2.8108,-5.0101 4.5758,-8.1205 1.765,-3.1104 3.8443,-6.8216 4.6207,-8.2472 0.77646,-1.4256 1.6666,-2.9101 1.9781,-3.2989 0.3115,-0.3888 2.6539,-4.5242 5.2054,-9.1898 2.5514,-4.6656 5.1152,-9.0649 5.6972,-9.7763 0.58199,-0.7114 1.2039,-1.7718 1.3821,-2.3564 0.17817,-0.5846 0.58811,-1.381 0.91098,-1.7698 0.32287,-0.3888 1.4957,-2.4035 2.6063,-4.4771 1.1106,-2.0736 3.235,-5.8909 4.7209,-8.4829 1.4859,-2.592 3.1193,-5.455 3.6298,-6.3621 0.51044,-0.9072 2.3065,-3.9822 3.9912,-6.8334 1.6847,-2.8512 4.0602,-7.0732 5.279,-9.3823 1.2187,-2.3091 2.6289,-4.7235 3.1338,-5.3654 0.50488,-0.64185 0.91797,-1.4187 0.91797,-1.7264 0,-0.30767 0.63031,-1.3924 1.4007,-2.4106 0.77038,-1.0182 1.4066,-2.1205 1.4138,-2.4497 0.007,-0.32915 0.517,-1.3967 1.1328,-2.3722 0.95313,-1.5098 3.8248,-6.5614 9.1614,-16.116 1.6137,-2.889 2.1501,-3.8263 7.1479,-12.489 2.3927,-4.1472 5.1063,-8.9188 6.0301,-10.604 0.92381,-1.6848 2.136,-3.8055 2.6937,-4.7127 0.55773,-0.90719 1.16,-1.9676 1.3383,-2.3564 0.17832,-0.3888 0.73114,-1.3431 1.2285,-2.1207 0.76609,-1.1978 3.5238,-6.0636 9.9738,-17.598 0.67506,-1.2072 2.3186,-4.0673 3.6524,-6.3558 1.3337,-2.2884 2.425,-4.2642 2.425,-4.3907 0,-0.12645 0.49556,-0.90499 1.1012,-1.7301 0.60569,-0.8251 2.6556,-4.3632 4.5554,-7.8623 1.8998,-3.4992 5.0463,-9.1191 6.9923,-12.489 1.946,-3.3696 4.6957,-8.1412 6.1106,-10.604 1.4148,-2.4624 3.3126,-5.7495 4.2171,-7.3047 2.1461,-3.6896 3.0244,-5.2187 6.0904,-10.604 1.402,-2.4624 2.7404,-4.7952 2.9743,-5.184 0.44411,-0.73836 3.9294,-6.8396 5.1754,-9.0601 1.353,-2.411 11.827,-20.392 12.291,-21.101 0.25464,-0.3888 1.8093,-3.1457 3.4548,-6.1265 3.3283,-6.0291 7.6432,-13.565 8.8637,-15.48 0.43814,-0.6875 1.6758,-2.8405 2.7504,-4.7845 2.1239,-3.8422 8.771,-15.492 11.098,-19.449 0.79701,-1.3557 2.6673,-4.5655 4.1562,-7.1328 3.758,-6.4802 6.7944,-9.7762 10.893,-11.825 3.0003,-1.4996 3.6713,-1.651 7.3201,-1.651 3.7219,0 4.2583,0.12767 7.3005,1.7377 4.313,2.2825 7.5962,5.7124 10.365,10.828 1.2396,2.2904 3.0001,5.5429 3.9122,7.2277 0.91211,1.6848 3.5609,6.4564 5.8861,10.604 6.4347,11.476 13.307,23.873 15.073,27.188 0.87098,1.6354 3.0262,5.5183 4.7894,8.6287 1.7632,3.1104 3.7885,6.7267 4.5008,8.0362 0.71227,1.3095 2.5206,4.4906 4.0186,7.069 4.7338,8.1484 5.8717,10.189 5.8717,10.531 0,0.18281 1.1664,2.3062 2.592,4.7188 1.4256,2.4125 2.592,4.4661 2.592,4.5636 0,0.0975 1.978,3.6266 4.3957,7.8425 2.4176,4.2158 4.5376,7.9833 4.7111,8.3721 0.17349,0.3888 1.1624,2.1914 2.1976,4.0058 1.0352,1.8144 2.6025,4.6774 3.4829,6.3622 0.8804,1.6848 3.1092,5.5832 4.9528,8.6631 1.8436,3.0799 3.3521,5.7641 3.3521,5.9648 0,0.20075 1.2344,2.4524 2.7432,5.0037 2.4633,4.1655 3.8727,6.6926 8.1063,14.535 1.145,2.1212 8.2802,14.874 17.666,31.575 1.8937,3.3696 4.1365,7.399 4.984,8.9541 0.8475,1.5552 2.3821,4.2061 3.4102,5.8909 1.0281,1.6848 2.8032,4.8659 3.9448,7.069 1.1415,2.2032 2.2679,4.3239 2.503,4.7127 1.1664,1.9287 11.391,20.008 13.06,23.092 1.0518,1.944 3.1029,5.6294 4.5581,8.1898 1.4552,2.5604 2.6458,4.7021 2.6458,4.7594 0,0.0572 3.1083,5.5969 6.9073,12.31 3.799,6.7135 7.6872,13.691 8.6403,15.505 0.95316,1.8144 2.7527,5.1015 3.9989,7.3047 1.2462,2.2032 2.7362,4.8541 3.311,5.8909 1.5816,2.8529 12.142,21.834 15.862,28.512 1.8052,3.24 3.4492,6.209 3.6534,6.5978 0.20416,0.38879 2.6298,4.6746 5.3902,9.5239 2.7605,4.8494 5.0191,8.8977 5.0191,8.9963 0,0.0986 2.863,5.3215 6.3622,11.606 3.4992,6.285 6.3622,11.498 6.3622,11.585 0,0.0866 1.0844,2.0298 2.4098,4.3182 2.1786,3.7615 4.9982,8.8851 10.07,18.299 0.97755,1.8144 3.4564,6.2256 5.5086,9.8027 2.0522,3.5771 3.9376,6.9703 4.1896,7.5403 0.25213,0.57006 0.94697,1.8848 1.5441,2.9216 0.5971,1.0368 2.6363,4.7438 4.5316,8.2377 1.8953,3.494 3.9165,7.0992 4.4917,8.0116 0.57518,0.91242 1.7245,2.9314 2.5541,4.4866 0.82957,1.5552 1.7029,3.1457 1.9407,3.5345 3.2113,5.2498 8.006,14.57 8.7278,16.966 1.1823,3.924 1.1995,9.3436 0.0386,12.244 -0.46411,1.1598 -1.9793,3.6175 -3.3671,5.4615 -2.1903,2.9103 -3.0092,3.5957 -6.2051,5.1942 l -3.6818,1.8415 -255.66,0.11409 -255.66,0.1141 -2.8276,-1.7964 z m 246.27,-25.02 c 1.0199,-1.0199 1.3776,-1.8247 1.3776,-3.0995 0,-1.2748 -0.35768,-2.0796 -1.3776,-3.0995 -1.01992,-1.0199 -1.8247,-1.3776 -3.0995,-1.3776 -2.2126,0 -4.4771,2.0948 -4.4771,4.1416 0,1.2573 1.3408,3.5748 2.5757,4.4518 1.188,0.84372 3.6385,0.34544 5.0008,-1.0169 z m 50.426,-0.47128 c 3.9713,-3.9712 -1.6815,-10.197 -5.9163,-6.5162 -1.4699,1.2777 -1.6992,3.6552 -0.56406,5.8503 0.87475,1.6916 1.3374,1.9541 3.5349,2.0063 1.1357,0.0269 1.9476,-0.34252 2.9454,-1.3404 z m 84.086,-46.215 c 1.8144,-0.23916 6.0558,-0.57888 9.4254,-0.75495 3.3696,-0.17606 6.4779,-0.50051 6.9073,-0.72101 1.0048,-0.51587 0.70464,-3.1888 -0.84671,-7.5408 -1.12,-3.1419 -1.4125,-5.1208 -0.75882,-5.1342 0.1944,-0.004 0.65839,-0.20017 1.0311,-0.43599 0.56131,-0.35517 0.44308,-0.76723 -0.68872,-2.4004 -1.2626,-1.8219 -1.3051,-2.0164 -0.55982,-2.5614 1.1121,-0.81322 1.0301,-1.1528 -0.71243,-2.9507 -1.3515,-1.3944 -1.4515,-1.6752 -0.90734,-2.5466 0.52787,-0.84526 0.47773,-1.1219 -0.3661,-2.0202 -1.2189,-1.2974 -1.2294,-1.8679 -0.0496,-2.6898 0.8769,-0.61084 0.71576,-0.82886 -2.9161,-3.9455 -5.3499,-4.5909 -5.5524,-4.8114 -5.5524,-6.0444 0,-0.60282 -0.47716,-1.5486 -1.0604,-2.1017 -0.5832,-0.55312 -1.7847,-2.4457 -2.67,-4.2058 -0.88529,-1.76 -1.9134,-3.7982 -2.2848,-4.5293 -0.37137,-0.73107 -0.56115,-1.7654 -0.42174,-2.2985 0.13941,-0.5331 -0.069,-1.4614 -0.46309,-2.0629 -0.39412,-0.60149 -0.65654,-1.6879 -0.58317,-2.4142 0.0734,-0.72632 -0.25091,-1.9021 -0.72063,-2.6129 -0.46971,-0.71079 -0.73998,-1.5895 -0.6006,-1.9528 0.13938,-0.36322 -0.26145,-1.6276 -0.89073,-2.8097 -0.62928,-1.1821 -1.1446,-2.6362 -1.1452,-3.2312 -0.002,-1.7402 -5.0117,-16.05 -7.6122,-21.742 -1.3138,-2.8758 -3.4981,-6.8263 -4.8541,-8.7789 -5.0928,-7.3337 -16.869,-15.895 -25.234,-18.346 -10.136,-2.9698 -17.652,-4.0386 -25.335,-3.6027 -3.1775,0.18026 -6.9948,0.51047 -8.4829,0.73378 -1.4881,0.22332 -4.9324,0.75139 -7.6539,1.1735 -5.6747,0.88012 -15.367,2.0879 -19.66,2.4499 -2.625,0.22135 -3.1886,0.10121 -5.4196,-1.1553 -3.3218,-1.8709 -7.2031,-2.9468 -10.63,-2.9468 -3.7123,0 -10.02,1.1269 -13.538,2.4186 -2.7009,0.9917 -3.4402,1.0336 -16.494,0.93515 -12.258,-0.0925 -25.039,0.32541 -36.204,1.1836 -3.8899,0.29901 -3.9234,0.292 -5.5875,-1.1691 l -1.6741,-1.4699 -2.3766,2.5536 c -1.6557,1.779 -2.9258,2.6906 -4.1868,3.0052 -0.99559,0.24839 -3.2947,0.80083 -5.109,1.2277 -4.379,1.0301 -6.4007,2.075 -7.5403,3.8969 -0.75064,1.2 -2.173,2.0582 -6.9862,4.215 -8.0267,3.5967 -9.2742,5.0625 -7.1664,8.4205 0.63756,1.0157 9.102,5.7683 13.124,7.3684 2.7924,1.1111 4.5846,1.4426 24.121,4.461 5.7193,0.88364 13.446,2.6819 17.908,4.168 1.8144,0.60423 4.5318,1.3513 6.0387,1.6601 1.6457,0.33728 2.8522,0.8543 3.0211,1.2946 0.15473,0.40321 -0.26907,2.4531 -0.94178,4.5552 -2.408,7.5249 -2.848,10.072 -2.5428,14.719 0.27182,4.1379 0.22861,4.4156 -0.95631,6.144 -3.2615,4.7576 -8.1535,17.075 -8.1535,20.529 0,1.9006 -2.9791,8.3115 -5.2076,11.207 -1.2969,1.6848 -2.7234,3.6435 -3.1701,4.3528 -0.95499,1.5164 -3.2095,2.5126 -7.1076,3.1403 -4.2169,0.67911 -5.7219,1.6052 -5.7219,3.5208 0,0.90774 0.35597,1.8864 0.84812,2.3318 1.863,1.686 8.7273,3.4075 14.468,3.6285 7.3363,0.28245 8.9833,0.21981 11.695,-0.44472 3.1857,-0.78077 4.5641,-2.172 4.5641,-4.6067 0,-1.8268 0.70505,-3.4007 1.9053,-4.2532 0.44723,-0.31766 0.95336,-1.325 1.1247,-2.2385 0.27303,-1.4554 0.48396,-1.661 1.7041,-1.661 1.048,0 1.3924,-0.21888 1.3924,-0.88484 0,-1.026 0.78094,-1.7681 2.1207,-2.0152 0.66227,-0.12218 1.0126,-0.65199 1.1782,-1.7817 0.16575,-1.131 0.62744,-1.8282 1.5568,-2.351 0.72665,-0.40873 1.7923,-1.5914 2.3682,-2.6282 0.76191,-1.3718 1.3967,-1.9257 2.3312,-2.0342 0.91578,-0.10634 1.2842,-0.41699 1.2842,-1.0829 0,-0.51356 0.53018,-1.4251 1.1782,-2.0256 0.648,-0.60055 1.1782,-1.4207 1.1782,-1.8225 0,-0.40186 0.42208,-1.2258 0.93795,-1.831 2.2641,-2.6562 3.0405,-3.9447 2.9219,-4.8493 -0.0698,-0.53265 0.16334,-1.3654 0.51808,-1.8505 0.53677,-0.73408 0.81664,-0.79021 1.668,-0.33456 0.97503,0.52182 1.0238,0.45274 1.0398,-1.472 0.009,-1.1107 0.31978,-2.5496 0.69021,-3.1976 0.37042,-0.648 0.68102,-1.825 0.6902,-2.6156 0.02,-1.7183 0.75865,-2.5684 2.2317,-2.5684 0.59616,0 1.0839,-0.18111 1.0839,-0.40246 0,-1.0338 2.3922,-2.8964 3.7198,-2.8964 0.77468,0 1.5396,-0.21207 1.6998,-0.47127 0.97083,-1.5708 3.5769,1.579 6.8234,8.2472 4.3114,8.8553 5.1326,12.507 5.5198,24.546 0.24786,7.7049 0.18268,9.2585 -0.42751,10.19 -0.80791,1.233 -4.1328,2.81 -7.6743,3.64 -5.5832,1.3084 -7.2384,3.3214 -4.69,5.7037 1.1956,1.1177 1.4561,1.1574 6.737,1.0261 3.0213,-0.0751 8.5348,0.0957 12.252,0.3794 8.3627,0.63833 9.0288,0.39131 9.0288,-3.348 0,-2.9654 0.62813,-4.1996 2.1373,-4.1996 1.2616,0 1.3806,-0.42069 0.74565,-2.6347 -0.4616,-1.6095 0.0668,-3.0205 1.1311,-3.0205 0.50511,0 0.64327,-0.60427 0.56567,-2.4742 -0.0939,-2.2626 -0.009,-2.4874 0.98708,-2.6286 0.97516,-0.1382 1.0495,-0.31166 0.70691,-1.6494 -0.21057,-0.82225 -0.36405,-3.9854 -0.34108,-7.0291 0.0351,-4.6543 0.17826,-5.6849 0.90031,-6.4828 0.83068,-0.9179 0.8302,-1.0321 -0.0148,-3.5181 -0.84342,-2.4813 -0.84408,-2.6018 -0.0193,-3.5132 0.67118,-0.74165 0.78884,-1.3788 0.54941,-2.9755 -0.21553,-1.4372 -0.10369,-2.3045 0.38221,-2.964 0.68035,-0.92338 0.70653,-0.92158 2.7559,0.18993 1.689,0.91608 2.2519,1.0243 3.0651,0.58909 1.3524,-0.7238 1.4121,-0.70806 2.7367,0.72114 1.0676,1.1519 1.2603,1.2018 2.3629,0.61171 0.95578,-0.51152 1.388,-0.52548 2.1197,-0.0685 0.51111,0.31919 1.453,0.44005 2.1216,0.27223 0.84672,-0.21251 1.9255,0.0906 3.6467,1.0248 3.2824,1.7815 6.7694,4.3128 7.0892,5.1463 0.47749,1.2443 -0.10609,24.097 -0.6456,25.281 -0.69154,1.5178 -2.9597,3.0116 -6.3371,4.1735 -3.3715,1.16 -4.4958,2.1044 -4.4958,3.7766 0,1.8435 1.2578,2.7086 5.119,3.5208 4.1038,0.86327 9.2325,0.92115 14.474,0.16334 3.5491,-0.51315 4.1326,-0.47457 7.3735,0.48754 2.7128,0.80535 3.8062,0.93573 4.771,0.56891 1.1497,-0.43712 1.2517,-0.69154 1.2517,-3.1236 0,-2.2414 0.14303,-2.6852 0.93196,-2.8915 0.83699,-0.21887 0.90859,-0.54794 0.70266,-3.229 -0.19266,-2.5081 -0.0968,-3.0601 0.59967,-3.4533 0.78085,-0.44083 0.76519,-0.64067 -0.26971,-3.4425 -1.7608,-4.7672 -1.8038,-5.4718 -0.36742,-6.0179 1.454,-0.5528 1.4079,-0.27373 0.49004,-2.9675 -1.0077,-2.9575 -0.40251,-4.1214 2.143,-4.1214 1.0124,0 1.9459,-0.17025 2.0745,-0.37834 0.1286,-0.20808 -0.41265,-1.3722 -1.2028,-2.5868 -2.0595,-3.1661 -1.0583,-4.6552 1.9671,-2.9257 1.8039,1.0312 3.1175,0.84794 4.1578,-0.58012 l 0.93753,-1.287 2.5185,1.6974 c 1.3852,0.93358 3.6805,2.308 5.1008,3.0543 1.6846,0.88517 5.2926,3.9782 10.378,8.8972 4.2878,4.1472 8.9048,8.5211 10.26,9.7199 3.6158,3.1987 3.434,4.3727 -1.1886,7.6778 -2.2487,1.6078 -2.4742,1.934 -2.4742,3.5803 0,2.6172 0.90918,3.2954 4.3929,3.277 1.6015,-0.008 4.3963,-0.21109 6.2107,-0.45024 z m -89.27,-323.27 c 3.9321,-3.9321 -1.4926,-10.038 -5.8636,-6.5998 -0.91806,0.72215 -1.2417,1.4058 -1.2417,2.623 0,2.1432 0.65884,3.3101 2.5042,4.4353 2.0489,1.2493 2.9868,1.1558 4.6011,-0.45848 z m -51.368,-1.4138 c 3.9321,-3.9321 -1.4926,-10.038 -5.8636,-6.5998 -0.97713,0.76861 -1.2417,1.3844 -1.2417,2.8898 0,1.5831 0.29026,2.1868 1.683,3.5003 2.0924,1.9734 3.6003,2.0317 5.4223,0.20971 z"
           inkscape:connector-curvature="0"
           style="fill:#a1a2a0" />
        <path
           id="path3564"
           d="m 95.129,748.6 c -3.7783,-2.4004 -7.0936,-6.1727 -9.0757,-10.327 -1.5071,-3.1586 -1.6156,-3.6876 -1.4596,-7.1215 0.15278,-3.3642 0.39667,-4.165 2.6207,-8.6053 1.3487,-2.6928 4.8233,-9.0314 7.7212,-14.086 9.1496,-15.958 10.326,-18.026 10.326,-18.154 0,-0.0687 1.5143,-2.7454 3.365,-5.9483 1.8508,-3.2029 3.7846,-6.5656 4.2974,-7.4728 0.51277,-0.90719 2.1474,-3.7702 3.6325,-6.3622 1.4851,-2.592 3.695,-6.5153 4.9109,-8.7185 1.2159,-2.2032 2.4675,-4.4224 2.7813,-4.9316 1.997,-3.2399 4.3453,-7.314 6.9366,-12.034 1.6364,-2.9808 4.2876,-7.6464 5.8915,-10.368 1.604,-2.7216 4.039,-6.963 5.4112,-9.4254 1.3722,-2.4624 2.8888,-5.0517 3.3702,-5.754 0.4814,-0.7023 0.87527,-1.4118 0.87527,-1.5767 0,-0.16488 0.4454,-0.9253 0.98978,-1.6898 0.54439,-0.76452 1.7638,-2.8544 2.7098,-4.6442 0.94601,-1.7898 2.8334,-5.1717 4.1942,-7.5153 1.3608,-2.3436 2.4742,-4.3792 2.4742,-4.5234 0,-0.14424 0.84828,-1.5394 1.8851,-3.1003 1.03682,-1.5609 1.8851,-3.1286 1.8851,-3.4838 0,-0.35517 0.19832,-0.76833 0.44071,-0.91814 0.24239,-0.1498 1.0557,-1.3817 1.8075,-2.7376 0.75172,-1.3559 2.8108,-5.0101 4.5758,-8.1205 1.765,-3.1104 3.8443,-6.8216 4.6207,-8.2472 0.77646,-1.4256 1.6666,-2.9101 1.9781,-3.2989 0.3115,-0.3888 2.6539,-4.5242 5.2054,-9.1898 2.5514,-4.6656 5.1152,-9.0649 5.6972,-9.7763 0.58199,-0.7114 1.2039,-1.7718 1.3821,-2.3564 0.17817,-0.5846 0.58811,-1.381 0.91098,-1.7698 0.32287,-0.3888 1.4957,-2.4035 2.6063,-4.4771 1.1106,-2.0736 3.235,-5.8909 4.7209,-8.4829 1.4859,-2.592 3.1193,-5.455 3.6298,-6.3621 0.51044,-0.9072 2.3065,-3.9822 3.9912,-6.8334 1.6847,-2.8512 4.0602,-7.0732 5.279,-9.3823 1.2187,-2.3091 2.6289,-4.7235 3.1338,-5.3654 0.50488,-0.64185 0.91797,-1.4187 0.91797,-1.7264 0,-0.30767 0.63031,-1.3924 1.4007,-2.4106 0.77038,-1.0182 1.4066,-2.1205 1.4138,-2.4497 0.007,-0.32915 0.517,-1.3967 1.1328,-2.3722 0.95313,-1.5098 3.8248,-6.5614 9.1614,-16.116 1.6137,-2.889 2.1501,-3.8263 7.1479,-12.489 2.3927,-4.1472 5.1063,-8.9188 6.0301,-10.604 0.92381,-1.6848 2.136,-3.8055 2.6937,-4.7127 0.55773,-0.90719 1.16,-1.9676 1.3383,-2.3564 0.17832,-0.3888 0.73114,-1.3431 1.2285,-2.1207 0.76609,-1.1978 3.5238,-6.0636 9.9738,-17.598 0.67506,-1.2072 2.3186,-4.0673 3.6524,-6.3558 1.3337,-2.2884 2.425,-4.2642 2.425,-4.3907 0,-0.12645 0.49556,-0.90499 1.1012,-1.7301 0.60569,-0.8251 2.6556,-4.3632 4.5554,-7.8623 1.8998,-3.4992 5.0463,-9.1191 6.9923,-12.489 1.946,-3.3696 4.6957,-8.1412 6.1106,-10.604 1.4148,-2.4624 3.3126,-5.7495 4.2171,-7.3047 2.1461,-3.6896 3.0244,-5.2187 6.0904,-10.604 1.402,-2.4624 2.7404,-4.7952 2.9743,-5.184 0.44411,-0.73836 3.9294,-6.8396 5.1754,-9.0601 1.353,-2.411 11.827,-20.392 12.291,-21.101 0.25464,-0.3888 1.8093,-3.1457 3.4548,-6.1265 3.3283,-6.0291 7.6432,-13.565 8.8637,-15.48 0.43814,-0.6875 1.6758,-2.8405 2.7504,-4.7845 2.1239,-3.8422 8.771,-15.492 11.098,-19.449 0.79701,-1.3557 2.6673,-4.5655 4.1562,-7.1328 3.758,-6.4802 6.7944,-9.7762 10.893,-11.825 3.0003,-1.4996 3.6713,-1.651 7.3201,-1.651 3.7219,0 4.2583,0.12767 7.3005,1.7377 4.313,2.2825 7.5962,5.7124 10.365,10.828 1.2396,2.2904 3.0001,5.5429 3.9122,7.2277 0.91211,1.6848 3.5609,6.4564 5.8861,10.604 6.4347,11.476 13.307,23.873 15.073,27.188 0.87098,1.6354 3.0262,5.5183 4.7894,8.6287 1.7632,3.1104 3.7885,6.7267 4.5008,8.0362 0.71227,1.3095 2.5206,4.4906 4.0186,7.069 4.7338,8.1484 5.8717,10.189 5.8717,10.531 0,0.18281 1.1664,2.3062 2.592,4.7188 1.4256,2.4125 2.592,4.4661 2.592,4.5636 0,0.0975 1.978,3.6266 4.3957,7.8425 2.4176,4.2158 4.5376,7.9833 4.7111,8.3721 0.17349,0.3888 1.1624,2.1914 2.1976,4.0058 1.0352,1.8144 2.6025,4.6774 3.4829,6.3622 0.8804,1.6848 3.1092,5.5832 4.9528,8.6631 1.8436,3.0799 3.3521,5.7641 3.3521,5.9648 0,0.20075 1.2344,2.4524 2.7432,5.0037 2.4633,4.1655 3.8727,6.6926 8.1063,14.535 1.145,2.1212 8.2802,14.874 17.666,31.575 1.8937,3.3696 4.1365,7.399 4.984,8.9541 0.8475,1.5552 2.3821,4.2061 3.4102,5.8909 1.0281,1.6848 2.8032,4.8659 3.9448,7.069 1.1415,2.2032 2.2679,4.3239 2.503,4.7127 1.1664,1.9287 11.391,20.008 13.06,23.092 1.0518,1.944 3.1029,5.6294 4.5581,8.1898 1.4552,2.5604 2.6458,4.7021 2.6458,4.7594 0,0.0572 3.1083,5.5969 6.9073,12.31 3.799,6.7135 7.6872,13.691 8.6403,15.505 0.95316,1.8144 2.7527,5.1015 3.9989,7.3047 1.2462,2.2032 2.7362,4.8541 3.311,5.8909 1.5816,2.8529 12.142,21.834 15.862,28.512 1.8052,3.24 3.4492,6.209 3.6534,6.5978 0.20416,0.38879 2.6298,4.6746 5.3902,9.5239 2.7605,4.8494 5.0191,8.8977 5.0191,8.9963 0,0.0986 2.863,5.3215 6.3622,11.606 3.4992,6.285 6.3622,11.498 6.3622,11.585 0,0.0866 1.0844,2.0298 2.4098,4.3182 2.1786,3.7615 4.9982,8.8851 10.07,18.299 0.97755,1.8144 3.4564,6.2256 5.5086,9.8027 2.0522,3.5771 3.9376,6.9703 4.1896,7.5403 0.25213,0.57006 0.94697,1.8848 1.5441,2.9216 0.5971,1.0368 2.6363,4.7438 4.5316,8.2377 1.8953,3.494 3.9165,7.0992 4.4917,8.0116 0.57518,0.91242 1.7245,2.9314 2.5541,4.4866 0.82957,1.5552 1.7029,3.1457 1.9407,3.5345 3.2113,5.2498 8.006,14.57 8.7278,16.966 1.1823,3.924 1.1995,9.3436 0.0386,12.244 -0.46411,1.1598 -1.9793,3.6175 -3.3671,5.4615 -2.1903,2.9103 -3.0092,3.5957 -6.2051,5.1942 l -3.6818,1.8415 -255.66,0.11409 -255.66,0.1141 -2.8276,-1.7964 z m 246.27,-25.02 c 1.0199,-1.0199 1.3776,-1.8247 1.3776,-3.0995 0,-1.2748 -0.35768,-2.0796 -1.3776,-3.0995 -3.0174,-3.0174 -7.5766,-0.88633 -7.5766,3.5415 0,1.9356 0.1616,2.2624 1.5316,3.0978 2.2558,1.3754 4.3844,1.2204 6.0449,-0.44021 z m 50.426,-0.47128 c 3.7592,-3.7592 -1.2449,-9.884 -5.5893,-6.841 -1.056,0.73969 -2.3254,2.8645 -2.2353,3.7416 0.28249,2.7483 2.1342,4.4426 4.8792,4.4645 1.1152,0.009 1.9656,-0.38517 2.9454,-1.365 z m 85.499,-45.741 c 1.8144,-0.23772 5.9498,-0.5769 9.1898,-0.75372 3.24,-0.17683 6.156,-0.53154 6.48,-0.78824 0.98567,-0.78094 0.66397,-3.8892 -0.82472,-7.9683 -0.7776,-2.1307 -1.4138,-3.9446 -1.4138,-4.031 0,-0.0864 0.53017,-0.35867 1.1782,-0.60504 1.4887,-0.56602 1.4812,-1.2203 -0.0399,-3.4588 -1.2024,-1.7695 -1.2054,-1.7958 -0.23563,-2.0494 1.4214,-0.37171 1.2142,-1.2976 -0.72437,-3.2362 -1.5867,-1.5867 -1.6625,-1.7896 -1.0773,-2.883 0.57237,-1.0695 0.52412,-1.2582 -0.53174,-2.0791 l -1.1612,-0.90285 1.175,-0.91324 1.175,-0.91323 -2.6292,-2.5263 c -1.4461,-1.3895 -3.6184,-3.3368 -4.8274,-4.3275 -1.5577,-1.2764 -2.1981,-2.1469 -2.1981,-2.9877 0,-0.72924 -0.72649,-1.9747 -1.8851,-3.2316 -1.0368,-1.1248 -1.8851,-2.342 -1.8851,-2.7048 0,-0.36286 -0.3125,-0.91908 -0.69444,-1.2361 -0.38194,-0.31698 -0.83012,-1.2996 -0.99596,-2.1836 -0.16584,-0.88401 -0.48956,-1.7235 -0.71938,-1.8655 -0.22981,-0.14203 -0.41785,-1.0516 -0.41785,-2.0213 0,-0.96965 -0.25358,-2.0166 -0.56352,-2.3265 -0.30994,-0.30993 -0.51529,-1.3812 -0.45632,-2.3805 0.0687,-1.1651 -0.15176,-2.0319 -0.61465,-2.416 -0.39702,-0.3295 -0.72186,-1.113 -0.72186,-1.7412 0,-0.62813 -0.53018,-2.138 -1.1782,-3.3552 -0.648,-1.2173 -1.1782,-2.738 -1.1782,-3.3793 0,-2.053 -5.1824,-16.557 -8.0054,-22.405 -1.5015,-3.1104 -3.6017,-6.8069 -4.667,-8.2145 -1.0653,-1.4076 -1.937,-2.703 -1.937,-2.8787 0,-0.74176 -8.2694,-7.4357 -12.101,-9.7958 -7.3124,-4.5038 -10.532,-5.6238 -24.772,-8.6166 -2.9506,-0.62014 -16.661,-0.30762 -21.8,0.49692 -4.1742,0.65349 -12.632,1.8377 -17.201,2.4085 -2.2032,0.27519 -5.5088,0.73546 -7.3457,1.0228 l -3.3399,0.52244 -4.1553,-2.0682 c -3.886,-1.9341 -4.4499,-2.08 -8.7005,-2.2507 -5.371,-0.21573 -10.155,0.44505 -15.338,2.1187 -3.7279,1.2036 -3.9234,1.2164 -17.437,1.1374 -12.56,-0.0734 -29.545,0.49482 -35.395,1.184 -2.2123,0.26065 -2.5393,0.1661 -4.068,-1.1761 -2.3354,-2.0505 -3.2267,-1.8798 -5.778,1.1065 -1.9647,2.2998 -2.4698,2.6202 -4.867,3.0885 -6.7488,1.3182 -11.864,3.4344 -11.864,4.9081 0,1.0605 -1.516,2.0018 -7.6744,4.7649 -3.3137,1.4868 -6.3357,3.147 -6.7156,3.6894 -1.8228,2.6024 -0.13877,5.7224 4.3603,8.078 1.7579,0.92041 3.9144,2.1048 4.7922,2.6319 3.8086,2.2872 7.6097,3.3066 18.433,4.9433 11.447,1.7309 18.49,3.1051 24.035,4.6895 3.24,0.92575 7.439,2.0731 9.3312,2.5496 1.8922,0.47653 3.5252,0.95137 3.6291,1.0552 0.10382,0.10382 -0.57218,2.5144 -1.5022,5.3568 -1.5298,4.6753 -1.7119,5.797 -1.9103,11.766 -0.15429,4.6419 -0.40999,6.8134 -0.86256,7.3251 -1.6335,1.8469 -6.788,13.649 -7.7095,17.652 -1.6949,7.3633 -2.8021,10.194 -5.2531,13.431 -1.2756,1.6848 -2.8576,3.8668 -3.5155,4.8488 -1.3367,1.9955 -2.3726,2.5055 -6.8337,3.3644 -1.6943,0.3262 -3.709,0.8943 -4.4771,1.2624 -1.2969,0.62157 -1.3966,0.85392 -1.3966,3.255 0,2.4888 0.0618,2.6156 1.6494,3.3841 5.4326,2.6299 19.295,3.9768 25.767,2.5036 3.884,-0.88408 4.5865,-1.6049 4.9758,-5.1051 0.17682,-1.5899 0.63043,-2.6684 1.5074,-3.5837 0.68993,-0.72014 1.4242,-1.9234 1.6318,-2.674 0.28707,-1.0381 0.62597,-1.3367 1.4163,-1.248 0.77619,0.0872 1.1611,-0.23359 1.5217,-1.2682 0.3463,-0.99339 0.83727,-1.426 1.7368,-1.5305 1.0535,-0.12232 1.3008,-0.43603 1.5468,-1.962 0.28394,-1.7612 1.0016,-2.6386 2.1704,-2.6535 0.31187,-0.004 0.98214,-0.94562 1.4895,-2.0926 0.72733,-1.6442 1.1978,-2.1178 2.2242,-2.2385 0.96528,-0.11358 1.4218,-0.51866 1.7661,-1.567 0.25535,-0.7776 0.83067,-1.674 1.2785,-1.9919 0.44782,-0.31795 0.94078,-1.0824 1.0955,-1.6987 0.15469,-0.61633 1.1332,-2.0527 2.1746,-3.1919 1.3532,-1.4803 1.8933,-2.4859 1.8933,-3.5245 0,-1.8354 0.33895,-2.1711 1.479,-1.4648 1.1975,0.74189 1.934,-0.30285 1.5976,-2.2663 -0.13729,-0.80123 0.0626,-1.9987 0.46128,-2.7637 0.38694,-0.74242 0.70353,-1.8384 0.70353,-2.4356 0,-1.78 0.5083,-2.5767 1.6439,-2.5767 0.67113,0 1.5422,-0.61665 2.3299,-1.6494 0.90002,-1.18 1.6268,-1.6494 2.5537,-1.6494 0.71256,0 1.5595,-0.26396 1.8822,-0.58658 0.46794,-0.46794 0.91511,-0.2058 2.2107,1.296 2.0367,2.3608 5.9533,10.253 7.2488,14.607 1.876,6.3049 3.0554,21.765 1.9107,25.049 -0.6262,1.7963 -2.5338,2.8925 -6.9572,3.9979 -5.2376,1.3089 -6.4278,2.1279 -6.605,4.5451 -0.13088,1.7851 0.002,2.063 1.4138,2.9562 1.3966,0.88356 2.0473,0.95988 6.271,0.73551 2.592,-0.13769 8.1692,-0.0176 12.394,0.26677 9.4554,0.63659 9.9886,0.48809 9.998,-2.7842 0.01,-3.4439 0.38797,-4.3214 2.0516,-4.7618 1.5534,-0.41116 1.7129,-0.95562 1.0223,-3.4885 -0.30453,-1.1169 -0.1808,-1.3538 0.92706,-1.775 1.1718,-0.44549 1.2511,-0.63298 0.95042,-2.2456 -0.18045,-0.96774 -0.36245,-1.9716 -0.40445,-2.2308 -0.042,-0.25919 0.50681,-0.53837 1.2196,-0.62039 1.4305,-0.16459 1.5237,-0.50096 0.80901,-2.9172 -0.43307,-1.4641 -0.58525,-4.5851 -0.48725,-9.993 0.0211,-1.1646 0.37737,-2.071 1.0663,-2.7128 1.0178,-0.9482 1.0216,-1.0002 0.2333,-3.1994 -0.99067,-2.764 -1.0016,-3.5995 -0.0571,-4.3833 0.57093,-0.47383 0.66986,-1.1199 0.43403,-2.8345 -0.38015,-2.7641 0.18336,-3.197 2.3878,-1.8346 1.4736,0.91073 1.822,0.95779 3.1176,0.42114 1.3642,-0.56506 1.5181,-0.5225 2.3775,0.65725 1.0663,1.4638 1.6163,1.5582 2.8061,0.48148 0.80194,-0.72574 0.92172,-0.72574 1.7237,0 0.93649,0.84751 2.2293,1.0261 2.6382,0.3645 0.56276,-0.91055 8.65,4.1172 9.6609,6.006 0.29249,0.54652 0.35979,5.1376 0.18129,12.367 l -0.28391,11.497 -1.794,1.6741 c -1.0744,1.0026 -2.8839,2.0177 -4.5112,2.5306 -4.2888,1.3519 -4.868,1.8886 -4.868,4.5102 0,1.2791 0.26639,2.4655 0.61936,2.7585 2.0426,1.6952 14.199,2.5841 20.191,1.4764 2.2008,-0.40684 3.0717,-0.3348 5.624,0.46519 3.3805,1.0596 5.2374,1.1924 6.5854,0.47088 0.71244,-0.38129 0.91156,-0.99656 0.91156,-2.8168 0,-1.9439 0.18863,-2.4525 1.141,-3.0765 1.0412,-0.68219 1.1178,-0.97256 0.87588,-3.3168 -0.21058,-2.0404 -0.0962,-2.7559 0.55572,-3.4762 0.77812,-0.85982 0.7787,-1.0341 0.0111,-3.345 -0.44536,-1.3409 -1.0941,-2.986 -1.4416,-3.6559 -0.68069,-1.312 -0.20028,-2.4458 1.0363,-2.4458 0.80163,0 0.82385,-1.2186 0.0734,-4.0244 -0.67881,-2.538 -0.26471,-3.0258 2.5787,-3.0374 1.466,-0.006 1.7673,-0.17218 1.7673,-0.97476 0,-0.53215 -0.53017,-1.7478 -1.1782,-2.7014 -0.648,-0.95361 -1.1782,-1.8967 -1.1782,-2.0957 0,-0.61007 1.652,-0.40195 2.6197,0.33005 1.3123,0.99253 2.3019,0.88182 3.8635,-0.43222 l 1.3716,-1.1541 1.61,1.0932 c 0.88551,0.60129 2.9885,1.8497 4.6733,2.7744 2.2515,1.2356 5.2004,3.7988 11.128,9.6723 4.4355,4.3952 8.921,8.558 9.9678,9.2507 3.2693,2.1635 2.96,3.2878 -1.9226,6.9892 -1.6136,1.2232 -1.7361,1.4909 -1.7361,3.7937 0,1.3627 0.25448,2.7321 0.56552,3.0432 0.67723,0.67723 7.1142,0.73254 11.923,0.10245 z m -90.68,-323.74 c 1.0199,-1.0199 1.3776,-1.8247 1.3776,-3.0995 0,-2.3944 -2.0826,-4.4771 -4.4771,-4.4771 -3.8708,0 -6.0351,5.0826 -3.3203,7.7974 1.7112,1.7112 4.5867,1.6123 6.4198,-0.22081 z m -51.368,-1.4138 c 1.0199,-1.0199 1.3776,-1.8247 1.3776,-3.0995 0,-2.3944 -2.0826,-4.4771 -4.4771,-4.4771 -3.8707,0 -6.0351,5.0826 -3.3203,7.7974 1.7112,1.7112 4.5867,1.6123 6.4198,-0.22081 z"
           inkscape:connector-curvature="0"
           style="fill:#fc5a59" />
        <path
           id="path3562"
           d="m 96.051,748.57 c -3.1768,-1.8232 -8.0745,-7.1392 -9.5637,-10.381 -1.4329,-3.1188 -1.8355,-7.1989 -1.0156,-10.293 0.68964,-2.6022 3.7411,-8.5135 10.15,-19.662 2.533,-4.4064 6.3378,-11.087 8.4551,-14.845 2.1173,-3.7584 4.7028,-8.3179 5.7456,-10.132 3.8903,-6.7692 9.4927,-16.623 11.655,-20.5 1.2288,-2.2032 2.9904,-5.2782 3.9145,-6.8334 0.92412,-1.5552 3.6356,-6.3277 6.0254,-10.606 2.3899,-4.2779 5.1792,-9.1556 6.1985,-10.839 1.0193,-1.6836 3.0951,-5.2879 4.6129,-8.0095 2.6726,-4.7924 4.2461,-7.422 5.9337,-9.9165 0.44576,-0.6589 1.218,-2.0374 1.716,-3.0633 0.49805,-1.0259 3.0162,-5.5365 5.5958,-10.023 2.5796,-4.487 5.2917,-9.2586 6.0269,-10.604 0.73519,-1.345 2.1385,-3.8239 3.1185,-5.5086 0.97999,-1.6848 3.3279,-5.8202 5.2177,-9.1898 1.8897,-3.3696 3.9083,-6.8688 4.4857,-7.776 0.5774,-0.9072 3.0184,-5.2547 5.4244,-9.661 2.406,-4.4064 4.7312,-8.4357 5.167,-8.9541 0.43585,-0.5184 2.2407,-3.5934 4.0107,-6.8334 1.77,-3.24 5.9773,-10.662 9.3494,-16.494 6.0707,-10.499 11.158,-19.509 13.557,-24.01 0.6828,-1.281 1.6901,-2.8996 2.2385,-3.5968 0.5484,-0.69718 0.99709,-1.474 0.99709,-1.7263 0,-0.25228 1.3475,-2.8216 2.9945,-5.7095 1.647,-2.888 5.3895,-9.4922 8.3167,-14.676 5.0644,-8.9688 8.6448,-15.209 14.466,-25.213 1.4328,-2.4624 4.3012,-7.5521 6.3742,-11.31 2.073,-3.7584 4.1752,-7.4696 4.6717,-8.2472 1.3047,-2.0436 8.2666,-14.233 13.593,-23.799 2.5254,-4.536 5.8236,-10.368 7.3292,-12.96 1.5056,-2.592 3.8961,-6.7274 5.3121,-9.1898 1.416,-2.4624 3.3211,-5.7495 4.2336,-7.3047 0.91244,-1.5552 3.2702,-5.6475 5.2394,-9.094 1.9692,-3.4465 4.5348,-7.9364 5.7012,-9.9777 1.1664,-2.0412 5.0897,-8.8282 8.7185,-15.082 3.6288,-6.254 8.1011,-14.064 9.9385,-17.356 5.9725,-10.7 7.8615,-13.984 8.4569,-14.704 0.32186,-0.38879 2.7039,-4.5242 5.2934,-9.1898 2.5895,-4.6656 5.4609,-9.7553 6.381,-11.31 0.92005,-1.5552 2.2843,-3.888 3.0316,-5.184 6.4087,-11.114 7.5454,-12.845 10.19,-15.519 3.8923,-3.9357 7.3062,-5.4524 12.273,-5.4524 3.1059,0 4.0141,0.20543 6.5389,1.4789 4.2372,2.1373 8.1477,6.3354 11.183,12.006 2.8111,5.2511 10.43,19.003 14.853,26.809 1.6156,2.8512 4.8414,8.6832 7.1686,12.96 5.1698,9.501 12.445,22.535 16.001,28.668 1.4533,2.5063 3.5863,6.3596 4.74,8.5627 1.1537,2.2032 2.7853,5.1722 3.6258,6.5978 1.828,3.1006 9.0688,16.001 14.224,25.342 2.0417,3.6996 5.2755,9.4255 7.1862,12.724 1.9107,3.2988 3.5904,6.3159 3.7328,6.7047 0.14236,0.3888 1.7847,3.3578 3.6498,6.5978 1.865,3.24 4.6554,8.2237 6.201,11.075 1.5455,2.8512 5.732,10.38 9.3033,16.73 3.5713,6.3504 8.2014,14.621 10.289,18.38 2.0878,3.7584 5.2184,9.2722 6.9569,12.253 1.7385,2.9808 3.7408,6.586 4.4496,8.0116 0.70883,1.4256 4.42,8.1058 8.247,14.845 3.827,6.7392 8.5506,15.116 10.497,18.615 1.9462,3.4992 6.871,12.3 10.944,19.558 4.073,7.2576 8.31,14.892 9.4155,16.966 1.1055,2.0736 3.3823,6.209 5.0595,9.1898 1.6772,2.9808 5.6549,10.085 8.8393,15.788 3.1844,5.7024 6.9854,12.487 8.4467,15.077 1.4614,2.5899 2.7379,4.9227 2.8368,5.184 0.0989,0.26128 2.345,4.2923 4.9914,8.9579 2.6464,4.6656 7.9492,14.209 11.784,21.207 3.8349,6.9984 8.3572,15.163 10.05,18.144 1.6924,2.9808 5.1345,9.2369 7.6491,13.902 2.5145,4.6656 6.0845,11.103 7.9334,14.306 1.8488,3.2029 3.3614,5.9293 3.3614,6.0587 0,0.12942 1.6198,3.1288 3.5996,6.6653 1.9798,3.5365 5.1352,9.1869 7.012,12.556 1.8768,3.3696 5.4454,9.7317 7.9303,14.138 5.3027,9.4031 6.6484,13.098 6.6151,18.166 -0.0273,4.1363 -1.1838,7.0281 -4.515,11.288 -1.5945,2.0391 -2.8262,2.9941 -5.7741,4.4771 l -3.7472,1.8851 -255.22,0.11414 -255.22,0.11414 -2.3773,-1.3644 z m 244.78,-23.81 c 4.3215,-2.2347 2.4437,-9.2251 -2.4781,-9.2251 -2.8944,0 -4.9939,2.1894 -4.9939,5.2077 0,1.0597 0.45837,1.9427 1.6023,3.0867 1.7851,1.7851 3.6467,2.0803 5.8697,0.93076 z m 50.426,-0.47127 c 1.4209,-0.73476 2.4247,-2.5054 2.4247,-4.2768 0,-5.4953 -8.009,-6.9094 -9.4216,-1.6635 -1.2248,4.5486 2.9061,8.0558 6.9969,5.9403 z m 86.075,-46.919 c 1.8144,-0.23772 5.9498,-0.5769 9.1898,-0.75372 3.24,-0.17683 6.156,-0.53154 6.48,-0.78824 0.98567,-0.78094 0.66397,-3.8892 -0.82472,-7.9683 -0.7776,-2.1307 -1.4138,-3.9446 -1.4138,-4.031 0,-0.0864 0.53017,-0.35867 1.1782,-0.60504 1.4887,-0.56602 1.4812,-1.2203 -0.0399,-3.4588 -1.2024,-1.7695 -1.2054,-1.7958 -0.23563,-2.0494 1.4214,-0.37171 1.2142,-1.2976 -0.72437,-3.2362 -1.5867,-1.5867 -1.6625,-1.7896 -1.0773,-2.883 0.57237,-1.0695 0.52412,-1.2582 -0.53174,-2.0791 l -1.1612,-0.90285 1.175,-0.91324 1.175,-0.91323 -2.6292,-2.5263 c -1.4461,-1.3895 -3.6184,-3.3368 -4.8274,-4.3275 -1.5577,-1.2764 -2.1981,-2.1469 -2.1981,-2.9877 0,-0.72924 -0.72649,-1.9747 -1.8851,-3.2316 -1.0368,-1.1248 -1.8851,-2.342 -1.8851,-2.7048 0,-0.36286 -0.3125,-0.91908 -0.69444,-1.2361 -0.38194,-0.31698 -0.83012,-1.2996 -0.99596,-2.1836 -0.16584,-0.88401 -0.48956,-1.7235 -0.71938,-1.8655 -0.22981,-0.14203 -0.41785,-1.0516 -0.41785,-2.0213 0,-0.96965 -0.25358,-2.0166 -0.56352,-2.3265 -0.30994,-0.30993 -0.51529,-1.3812 -0.45632,-2.3805 0.0687,-1.1651 -0.15176,-2.0319 -0.61465,-2.416 -0.39702,-0.3295 -0.72186,-1.113 -0.72186,-1.7412 0,-0.62813 -0.53018,-2.138 -1.1782,-3.3552 -0.648,-1.2173 -1.1782,-2.738 -1.1782,-3.3793 0,-2.053 -5.1824,-16.557 -8.0054,-22.405 -1.5015,-3.1104 -3.6017,-6.8069 -4.667,-8.2145 -1.0653,-1.4076 -1.937,-2.703 -1.937,-2.8787 0,-0.74176 -8.2694,-7.4357 -12.101,-9.7958 -7.3124,-4.5038 -10.532,-5.6238 -24.772,-8.6166 -2.9506,-0.62014 -16.661,-0.30762 -21.8,0.49692 -4.1742,0.65349 -12.632,1.8377 -17.201,2.4085 -2.2032,0.27519 -5.5088,0.73546 -7.3457,1.0228 l -3.3399,0.52244 -4.1553,-2.0682 c -3.886,-1.9341 -4.4499,-2.08 -8.7005,-2.2507 -5.371,-0.21573 -10.155,0.44505 -15.338,2.1187 -3.7279,1.2036 -3.9234,1.2164 -17.437,1.1374 -12.56,-0.0734 -29.545,0.49482 -35.395,1.184 -2.2123,0.26065 -2.5393,0.1661 -4.068,-1.1761 -2.3354,-2.0505 -3.2267,-1.8798 -5.778,1.1065 -1.9647,2.2998 -2.4698,2.6202 -4.867,3.0885 -6.7488,1.3182 -11.864,3.4344 -11.864,4.9081 0,1.0605 -1.516,2.0018 -7.6744,4.7649 -3.3137,1.4868 -6.3357,3.147 -6.7156,3.6894 -1.8228,2.6024 -0.13877,5.7224 4.3603,8.078 1.7579,0.92041 3.9144,2.1048 4.7922,2.6319 3.8086,2.2872 7.6097,3.3066 18.433,4.9433 11.447,1.7309 18.49,3.1051 24.035,4.6895 3.24,0.92575 7.439,2.0731 9.3312,2.5496 1.8922,0.47653 3.5252,0.95137 3.6291,1.0552 0.10382,0.10382 -0.57218,2.5144 -1.5022,5.3568 -1.5298,4.6753 -1.7119,5.797 -1.9103,11.766 -0.15429,4.6419 -0.40999,6.8134 -0.86256,7.3251 -1.6335,1.8469 -6.788,13.649 -7.7095,17.652 -1.6949,7.3633 -2.8021,10.194 -5.2531,13.431 -1.2756,1.6848 -2.8576,3.8668 -3.5155,4.8488 -1.3367,1.9955 -2.3726,2.5055 -6.8337,3.3644 -1.6943,0.3262 -3.709,0.8943 -4.4771,1.2624 -1.2969,0.62157 -1.3966,0.85392 -1.3966,3.255 0,2.4888 0.0618,2.6156 1.6494,3.3841 5.4326,2.6299 19.295,3.9768 25.767,2.5036 3.884,-0.88408 4.5865,-1.6049 4.9758,-5.1051 0.17682,-1.5899 0.63043,-2.6684 1.5074,-3.5837 0.68993,-0.72014 1.4242,-1.9234 1.6318,-2.674 0.28707,-1.0381 0.62597,-1.3367 1.4163,-1.248 0.77619,0.0872 1.1611,-0.23359 1.5217,-1.2682 0.3463,-0.99339 0.83727,-1.426 1.7368,-1.5305 1.0535,-0.12232 1.3008,-0.43603 1.5468,-1.962 0.28394,-1.7612 1.0016,-2.6386 2.1704,-2.6535 0.31187,-0.004 0.98214,-0.94562 1.4895,-2.0926 0.72733,-1.6442 1.1978,-2.1178 2.2242,-2.2385 0.96528,-0.11358 1.4218,-0.51866 1.7661,-1.567 0.25535,-0.7776 0.83067,-1.674 1.2785,-1.9919 0.44782,-0.31795 0.94078,-1.0824 1.0955,-1.6987 0.15469,-0.61633 1.1332,-2.0527 2.1746,-3.1919 1.3532,-1.4803 1.8933,-2.4859 1.8933,-3.5245 0,-1.8354 0.33895,-2.1711 1.479,-1.4648 1.1975,0.74189 1.934,-0.30285 1.5976,-2.2663 -0.13729,-0.80123 0.0626,-1.9987 0.46128,-2.7637 0.38694,-0.74242 0.70353,-1.8384 0.70353,-2.4356 0,-1.78 0.5083,-2.5767 1.6439,-2.5767 0.67113,0 1.5422,-0.61665 2.3299,-1.6494 0.90002,-1.18 1.6268,-1.6494 2.5537,-1.6494 0.71256,0 1.5595,-0.26396 1.8822,-0.58658 0.46794,-0.46794 0.91511,-0.2058 2.2107,1.296 2.0367,2.3608 5.9533,10.253 7.2488,14.607 1.876,6.3049 3.0554,21.765 1.9107,25.049 -0.6262,1.7963 -2.5338,2.8925 -6.9572,3.9979 -5.2376,1.3089 -6.4278,2.1279 -6.605,4.5451 -0.13088,1.7851 0.002,2.063 1.4138,2.9562 1.3966,0.88356 2.0473,0.95988 6.271,0.73551 2.592,-0.13769 8.1692,-0.0176 12.394,0.26677 9.4554,0.63659 9.9886,0.48809 9.998,-2.7842 0.01,-3.4439 0.38797,-4.3214 2.0516,-4.7618 1.5534,-0.41116 1.7129,-0.95562 1.0223,-3.4885 -0.30453,-1.1169 -0.1808,-1.3538 0.92706,-1.775 1.1718,-0.44549 1.2511,-0.63298 0.95042,-2.2456 -0.18045,-0.96774 -0.36245,-1.9716 -0.40445,-2.2308 -0.042,-0.25919 0.50681,-0.53837 1.2196,-0.62039 1.4305,-0.16459 1.5237,-0.50096 0.80901,-2.9172 -0.43307,-1.4641 -0.58525,-4.5851 -0.48725,-9.993 0.0211,-1.1646 0.37737,-2.071 1.0663,-2.7128 1.0178,-0.9482 1.0216,-1.0002 0.2333,-3.1994 -0.99067,-2.764 -1.0016,-3.5995 -0.0571,-4.3833 0.57093,-0.47383 0.66986,-1.1199 0.43403,-2.8345 -0.38015,-2.7641 0.18336,-3.197 2.3878,-1.8346 1.4736,0.91073 1.822,0.95779 3.1176,0.42114 1.3642,-0.56506 1.5181,-0.5225 2.3775,0.65725 1.0663,1.4638 1.6163,1.5582 2.8061,0.48148 0.80194,-0.72574 0.92172,-0.72574 1.7237,0 0.93649,0.84751 2.2293,1.0261 2.6382,0.3645 0.56276,-0.91055 8.65,4.1172 9.6609,6.006 0.29249,0.54652 0.35979,5.1376 0.18129,12.367 l -0.28391,11.497 -1.794,1.6741 c -1.0744,1.0026 -2.8839,2.0177 -4.5112,2.5306 -4.2888,1.3519 -4.868,1.8886 -4.868,4.5102 0,1.2791 0.26639,2.4655 0.61936,2.7585 2.0426,1.6952 14.199,2.5841 20.191,1.4764 2.2008,-0.40684 3.0717,-0.3348 5.624,0.46519 3.3805,1.0596 5.2374,1.1924 6.5854,0.47088 0.71244,-0.38129 0.91156,-0.99656 0.91156,-2.8168 0,-1.9439 0.18863,-2.4525 1.141,-3.0765 1.0412,-0.68219 1.1178,-0.97256 0.87588,-3.3168 -0.21058,-2.0404 -0.0962,-2.7559 0.55572,-3.4762 0.77812,-0.85982 0.7787,-1.0341 0.0111,-3.345 -0.44536,-1.3409 -1.0941,-2.986 -1.4416,-3.6559 -0.68069,-1.312 -0.20028,-2.4458 1.0363,-2.4458 0.80163,0 0.82385,-1.2186 0.0734,-4.0244 -0.67881,-2.538 -0.26471,-3.0258 2.5787,-3.0374 1.466,-0.006 1.7673,-0.17218 1.7673,-0.97476 0,-0.53215 -0.53017,-1.7478 -1.1782,-2.7014 -0.648,-0.95361 -1.1782,-1.8967 -1.1782,-2.0957 0,-0.61007 1.652,-0.40195 2.6197,0.33005 1.3123,0.99253 2.3019,0.88182 3.8635,-0.43222 l 1.3716,-1.1541 1.61,1.0932 c 0.88551,0.60129 2.9885,1.8497 4.6733,2.7744 2.2515,1.2356 5.2004,3.7988 11.128,9.6723 4.4355,4.3952 8.921,8.558 9.9678,9.2507 3.2693,2.1635 2.96,3.2878 -1.9226,6.9892 -1.6136,1.2232 -1.7361,1.4909 -1.7361,3.7937 0,1.3627 0.25448,2.7321 0.56552,3.0432 0.67723,0.67723 7.1142,0.73254 11.923,0.10245 z m -91.259,-322.56 c 0.71426,-0.36936 1.552,-1.2276 1.8617,-1.9073 2.136,-4.6879 -2.3729,-8.992 -6.9436,-6.6284 -1.5694,0.81159 -1.9188,1.5568 -1.9188,4.0928 0,2.4426 0.67205,3.6274 2.5113,4.4274 1.9273,0.83839 2.8916,0.8417 4.4894,0.0155 z m -51.368,-1.4138 c 0.71426,-0.36936 1.552,-1.2276 1.8617,-1.9073 2.136,-4.6879 -2.3729,-8.992 -6.9436,-6.6284 -1.5694,0.81159 -1.9188,1.5568 -1.9188,4.0928 0,2.3262 0.59306,3.4804 2.2504,4.3798 1.6397,0.88984 3.1137,0.9094 4.7503,0.063 z"
           inkscape:connector-curvature="0"
           style="fill:#fd0000" />
        <path
           id="path3560"
           d="m 333.71,725.39 c -0.80814,-0.47066 -2.7065,-3.7116 -2.7065,-4.6207 0,-0.58161 1.3428,-1.9375 1.9187,-1.9375 0.24068,0 0.43761,0.73487 0.43761,1.633 0,1.1397 0.42386,2.1158 1.4031,3.2311 1.7369,1.9782 1.1251,2.9625 -1.0529,1.6941 z m 48.915,-2.1905 c -1.4132,-2.0797 -1.5229,-3.8586 -0.32895,-5.333 1.17,-1.4448 2.1352,-0.81553 1.7662,1.1515 -0.18619,0.9925 0.0144,2.0692 0.59911,3.2162 0.61973,1.2156 0.73151,1.8716 0.37896,2.2242 -0.79435,0.79437 -1.1439,0.61218 -2.4153,-1.2588 z m -219.77,-30.85 c -0.86368,-0.86368 -0.6673,-2.305 0.59714,-4.3828 0.63094,-1.0368 1.8001,-3.0515 2.598,-4.4771 0.79797,-1.4256 2.452,-4.3236 3.6756,-6.4399 1.2236,-2.1164 3.5348,-6.1457 5.136,-8.9541 3.0116,-5.2823 4.1298,-7.2035 7.223,-12.411 1.0008,-1.6848 2.8162,-4.8659 4.0343,-7.0691 4.2673,-7.7184 12.647,-22.427 15.304,-26.862 1.4751,-2.4624 3.4476,-5.9988 4.3833,-7.8587 0.93567,-1.8599 1.9246,-3.5197 2.1976,-3.6884 0.27302,-0.16874 1.4415,-2.1462 2.5967,-4.3943 1.1552,-2.2481 4.2152,-7.6927 6.8002,-12.099 2.5849,-4.4064 5.5456,-9.6021 6.5793,-11.546 1.0337,-1.944 3.5798,-6.3975 5.658,-9.8967 2.0782,-3.4992 4.4506,-7.6346 5.2721,-9.1898 0.82147,-1.5552 2.0658,-3.6759 2.7653,-4.7127 0.69945,-1.0368 2.1892,-3.5816 3.3106,-5.6552 1.1214,-2.0736 2.7152,-4.7245 3.5418,-5.8909 0.82665,-1.1664 3.0509,-5.0897 4.9428,-8.7185 1.8919,-3.6288 3.7032,-6.9159 4.0252,-7.3047 0.32197,-0.3888 1.1791,-1.8733 1.9048,-3.2989 0.72568,-1.4256 2.1492,-3.8584 3.1633,-5.4063 1.0141,-1.5479 2.6674,-4.4108 3.674,-6.3622 1.0066,-1.9513 3.5262,-6.4108 5.5991,-9.91 2.0729,-3.4992 4.7246,-8.1648 5.8926,-10.368 1.1681,-2.2032 3.6041,-6.4446 5.4133,-9.4254 1.8093,-2.9808 3.8495,-6.48 4.5339,-7.776 4.0586,-7.6857 10.03,-18.287 11.613,-20.616 1.0119,-1.4892 2.4722,-4.034 3.2452,-5.6552 0.77291,-1.6212 2.9023,-5.4925 4.732,-8.6029 1.8297,-3.1104 5.1408,-8.9424 7.358,-12.96 2.2172,-4.0176 4.8283,-8.5771 5.8025,-10.132 0.97416,-1.5552 3.2959,-5.6887 5.1594,-9.1855 1.8635,-3.4968 3.765,-6.89 4.2256,-7.5403 0.46063,-0.65035 1.8528,-3.1971 3.0937,-5.6595 1.2409,-2.4624 2.5105,-4.7952 2.8213,-5.184 0.31079,-0.3888 1.4616,-2.4035 2.5574,-4.4771 1.0958,-2.0736 3.007,-5.4667 4.2472,-7.5403 2.5434,-4.2525 5.0778,-8.7563 11.295,-20.073 6.0871,-11.079 6.6399,-11.535 8.816,-7.2612 1.1537,2.2657 3.36,6.1325 8.8733,15.552 2.2757,3.888 6.2545,10.992 8.8419,15.788 2.5873,4.7952 4.9895,9.0429 5.3382,9.4394 0.34869,0.39651 0.90848,1.3547 1.244,2.1293 0.33549,0.77461 1.5643,3.0519 2.7307,5.0607 1.1664,2.0088 3.2537,5.5991 4.6384,7.9785 1.3848,2.3794 4.3382,7.6243 6.5633,11.655 2.225,4.0311 5.1688,9.2379 6.5416,11.571 5.4637,9.2843 12.654,22.072 16.165,28.747 1.6358,3.1104 3.2651,5.9907 3.6206,6.4007 0.35549,0.41002 1.5722,2.4247 2.7037,4.4771 1.1315,2.0524 3.4426,6.1704 5.1358,9.1512 1.6932,2.9808 3.8948,6.8793 4.8926,8.6633 0.99774,1.784 3.2093,5.6013 4.9146,8.4829 3.0796,5.2038 11.016,19.316 14.02,24.929 0.86265,1.6121 2.3706,4.3095 3.3511,5.9943 4.118,7.0764 11.917,20.943 15.109,26.862 1.8865,3.4992 6.8026,12.275 10.925,19.501 4.122,7.2266 7.7779,13.801 8.1242,14.609 0.61588,1.4382 4.6862,8.789 9.8169,17.729 1.4132,2.4624 3.372,6.0676 4.353,8.0116 0.98097,1.944 2.2849,4.2093 2.8975,5.034 0.61267,0.82468 1.3253,2.0553 1.5836,2.7347 0.44517,1.1709 1.9358,3.8833 11.917,21.686 2.3252,4.1472 5.7079,10.297 7.517,13.667 1.8091,3.3696 4.6168,8.4593 6.2393,11.31 6.1747,10.851 11.088,19.884 11.088,20.384 0,0.28603 -0.33324,0.85332 -0.74056,1.2606 -0.6708,0.67082 -18.773,0.74057 -192.18,0.74057 -148.27,0 -191.57,-0.12753 -192.01,-0.56552 z m 314.48,-14.978 c 1.8144,-0.23772 5.9498,-0.5769 9.1898,-0.75372 3.24,-0.17683 6.156,-0.53154 6.48,-0.78824 0.98567,-0.78094 0.66397,-3.8892 -0.82472,-7.9683 -0.7776,-2.1307 -1.4138,-3.9446 -1.4138,-4.031 0,-0.0864 0.53017,-0.35867 1.1782,-0.60504 1.4887,-0.56602 1.4812,-1.2203 -0.0399,-3.4588 -1.2024,-1.7695 -1.2054,-1.7958 -0.23563,-2.0494 1.4214,-0.37171 1.2142,-1.2976 -0.72437,-3.2362 -1.5867,-1.5867 -1.6625,-1.7896 -1.0773,-2.883 0.57237,-1.0695 0.52412,-1.2582 -0.53174,-2.0791 l -1.1612,-0.90285 1.175,-0.91324 1.175,-0.91323 -2.6292,-2.5263 c -1.4461,-1.3895 -3.6184,-3.3368 -4.8274,-4.3275 -1.5577,-1.2764 -2.1981,-2.1469 -2.1981,-2.9877 0,-0.72924 -0.72649,-1.9747 -1.8851,-3.2316 -1.0368,-1.1248 -1.8851,-2.342 -1.8851,-2.7048 0,-0.36286 -0.3125,-0.91908 -0.69444,-1.2361 -0.38194,-0.31698 -0.83012,-1.2996 -0.99596,-2.1836 -0.16584,-0.88401 -0.48956,-1.7235 -0.71938,-1.8655 -0.22981,-0.14203 -0.41785,-1.0516 -0.41785,-2.0213 0,-0.96965 -0.25358,-2.0166 -0.56352,-2.3265 -0.30994,-0.30993 -0.51529,-1.3812 -0.45632,-2.3805 0.0687,-1.1651 -0.15176,-2.0319 -0.61465,-2.416 -0.39702,-0.3295 -0.72186,-1.113 -0.72186,-1.7412 0,-0.62813 -0.53018,-2.138 -1.1782,-3.3552 -0.648,-1.2173 -1.1782,-2.738 -1.1782,-3.3793 0,-2.053 -5.1824,-16.557 -8.0054,-22.405 -1.5015,-3.1104 -3.6017,-6.8069 -4.667,-8.2145 -1.0653,-1.4076 -1.937,-2.703 -1.937,-2.8787 0,-0.74176 -8.2694,-7.4357 -12.101,-9.7958 -7.3124,-4.5038 -10.532,-5.6238 -24.772,-8.6166 -2.9506,-0.62014 -16.661,-0.30762 -21.8,0.49692 -4.1742,0.65349 -12.632,1.8377 -17.201,2.4085 -2.2032,0.27519 -5.5088,0.73546 -7.3457,1.0228 l -3.3399,0.52244 -4.1553,-2.0682 c -3.886,-1.9341 -4.4499,-2.08 -8.7005,-2.2507 -5.371,-0.21573 -10.155,0.44505 -15.338,2.1187 -3.7279,1.2036 -3.9234,1.2164 -17.437,1.1374 -12.56,-0.0734 -29.545,0.49482 -35.395,1.184 -2.2123,0.26065 -2.5393,0.1661 -4.068,-1.1761 -2.3354,-2.0505 -3.2267,-1.8798 -5.778,1.1065 -1.9647,2.2998 -2.4698,2.6202 -4.867,3.0885 -6.7488,1.3182 -11.864,3.4344 -11.864,4.9081 0,1.0605 -1.516,2.0018 -7.6744,4.7649 -3.3137,1.4868 -6.3357,3.147 -6.7156,3.6894 -1.8228,2.6024 -0.13877,5.7224 4.3603,8.078 1.7579,0.92041 3.9144,2.1048 4.7922,2.6319 3.8086,2.2872 7.6097,3.3066 18.433,4.9433 11.447,1.7309 18.49,3.1051 24.035,4.6895 3.24,0.92575 7.439,2.0731 9.3312,2.5496 1.8922,0.47653 3.5252,0.95137 3.6291,1.0552 0.10382,0.10382 -0.57218,2.5144 -1.5022,5.3568 -1.5298,4.6753 -1.7119,5.797 -1.9103,11.766 -0.15429,4.6419 -0.40999,6.8134 -0.86256,7.3251 -1.6335,1.8469 -6.788,13.649 -7.7095,17.652 -1.6949,7.3633 -2.8021,10.194 -5.2531,13.431 -1.2756,1.6848 -2.8576,3.8668 -3.5155,4.8488 -1.3367,1.9955 -2.3726,2.5055 -6.8337,3.3644 -1.6943,0.3262 -3.709,0.8943 -4.4771,1.2624 -1.2969,0.62157 -1.3966,0.85392 -1.3966,3.255 0,2.4888 0.0618,2.6156 1.6494,3.3841 5.4326,2.6299 19.295,3.9768 25.767,2.5036 3.884,-0.88408 4.5865,-1.6049 4.9758,-5.1051 0.17682,-1.5899 0.63043,-2.6684 1.5074,-3.5837 0.68993,-0.72014 1.4242,-1.9234 1.6318,-2.674 0.28707,-1.0381 0.62597,-1.3367 1.4163,-1.248 0.77619,0.0872 1.1611,-0.23359 1.5217,-1.2682 0.3463,-0.99339 0.83727,-1.426 1.7368,-1.5305 1.0535,-0.12232 1.3008,-0.43603 1.5468,-1.962 0.28394,-1.7612 1.0016,-2.6386 2.1704,-2.6535 0.31187,-0.004 0.98214,-0.94562 1.4895,-2.0926 0.72733,-1.6442 1.1978,-2.1178 2.2242,-2.2385 0.96528,-0.11358 1.4218,-0.51866 1.7661,-1.567 0.25535,-0.7776 0.83067,-1.674 1.2785,-1.9919 0.44782,-0.31795 0.94078,-1.0824 1.0955,-1.6987 0.15469,-0.61633 1.1332,-2.0527 2.1746,-3.1919 1.3532,-1.4803 1.8933,-2.4859 1.8933,-3.5245 0,-1.8354 0.33895,-2.1711 1.479,-1.4648 1.1975,0.74189 1.934,-0.30285 1.5976,-2.2663 -0.13729,-0.80123 0.0626,-1.9987 0.46128,-2.7637 0.38694,-0.74242 0.70353,-1.8384 0.70353,-2.4356 0,-1.78 0.5083,-2.5767 1.6439,-2.5767 0.67113,0 1.5422,-0.61665 2.3299,-1.6494 0.90002,-1.18 1.6268,-1.6494 2.5537,-1.6494 0.71256,0 1.5595,-0.26396 1.8822,-0.58658 0.46794,-0.46794 0.91511,-0.2058 2.2107,1.296 2.0367,2.3608 5.9533,10.253 7.2488,14.607 1.876,6.3049 3.0554,21.765 1.9107,25.049 -0.6262,1.7963 -2.5338,2.8925 -6.9572,3.9979 -5.2376,1.3089 -6.4278,2.1279 -6.605,4.5451 -0.13088,1.7851 0.002,2.063 1.4138,2.9562 1.3966,0.88356 2.0473,0.95988 6.271,0.73551 2.592,-0.13769 8.1692,-0.0176 12.394,0.26677 9.4554,0.63659 9.9886,0.48809 9.998,-2.7842 0.01,-3.4439 0.38797,-4.3214 2.0516,-4.7618 1.5534,-0.41116 1.7129,-0.95562 1.0223,-3.4885 -0.30453,-1.1169 -0.1808,-1.3538 0.92706,-1.775 1.1718,-0.44549 1.2511,-0.63298 0.95042,-2.2456 -0.18045,-0.96774 -0.36245,-1.9716 -0.40445,-2.2308 -0.042,-0.25919 0.50681,-0.53837 1.2196,-0.62039 1.4305,-0.16459 1.5237,-0.50096 0.80901,-2.9172 -0.43307,-1.4641 -0.58525,-4.5851 -0.48725,-9.993 0.0211,-1.1646 0.37737,-2.071 1.0663,-2.7128 1.0178,-0.9482 1.0216,-1.0002 0.2333,-3.1994 -0.99067,-2.764 -1.0016,-3.5995 -0.0571,-4.3833 0.57093,-0.47383 0.66986,-1.1199 0.43403,-2.8345 -0.38015,-2.7641 0.18336,-3.197 2.3878,-1.8346 1.4736,0.91073 1.822,0.95779 3.1176,0.42114 1.3642,-0.56506 1.5181,-0.5225 2.3775,0.65725 1.0663,1.4638 1.6163,1.5582 2.8061,0.48148 0.80194,-0.72574 0.92172,-0.72574 1.7237,0 0.93649,0.84751 2.2293,1.0261 2.6382,0.3645 0.56276,-0.91055 8.65,4.1172 9.6609,6.006 0.29249,0.54652 0.35979,5.1376 0.18129,12.367 l -0.28391,11.497 -1.794,1.6741 c -1.0744,1.0026 -2.8839,2.0177 -4.5112,2.5306 -4.2888,1.3519 -4.868,1.8886 -4.868,4.5102 0,1.2791 0.26639,2.4655 0.61936,2.7585 2.0426,1.6952 14.199,2.5841 20.191,1.4764 2.2008,-0.40684 3.0717,-0.3348 5.624,0.46519 3.3805,1.0596 5.2374,1.1924 6.5854,0.47088 0.71244,-0.38129 0.91156,-0.99656 0.91156,-2.8168 0,-1.9439 0.18863,-2.4525 1.141,-3.0765 1.0412,-0.68219 1.1178,-0.97256 0.87588,-3.3168 -0.21058,-2.0404 -0.0962,-2.7559 0.55572,-3.4762 0.77812,-0.85982 0.7787,-1.0341 0.0111,-3.345 -0.44536,-1.3409 -1.0941,-2.986 -1.4416,-3.6559 -0.68069,-1.312 -0.20028,-2.4458 1.0363,-2.4458 0.80163,0 0.82385,-1.2186 0.0734,-4.0244 -0.67881,-2.538 -0.26471,-3.0258 2.5787,-3.0374 1.466,-0.006 1.7673,-0.17218 1.7673,-0.97476 0,-0.53215 -0.53017,-1.7478 -1.1782,-2.7014 -0.648,-0.95361 -1.1782,-1.8967 -1.1782,-2.0957 0,-0.61007 1.652,-0.40195 2.6197,0.33005 1.3123,0.99253 2.3019,0.88182 3.8635,-0.43222 l 1.3716,-1.1541 1.61,1.0932 c 0.88551,0.60129 2.9885,1.8497 4.6733,2.7744 2.2515,1.2356 5.2004,3.7988 11.128,9.6723 4.4355,4.3952 8.921,8.558 9.9678,9.2507 3.2693,2.1635 2.96,3.2878 -1.9226,6.9892 -1.6136,1.2232 -1.7361,1.4909 -1.7361,3.7937 0,1.3627 0.25448,2.7321 0.56552,3.0432 0.67723,0.67723 7.1142,0.73254 11.923,0.10245 z m -98.35,-321.67 c -1.3374,-0.7262 -1.8392,-1.7491 -1.8996,-3.8725 -0.0514,-1.806 0.48023,-3.2795 1.296,-3.5926 0.5448,-0.20906 0.68896,0.20364 0.68896,1.9723 0,2.7089 0.87523,4.0807 3.0647,4.8032 0.90639,0.29914 1.648,0.73952 1.648,0.97861 0,0.67846 -3.3927,0.47401 -4.7982,-0.28914 z m -51.117,-2.069 c -2.0229,-1.2335 -2.9076,-3.8542 -1.8474,-5.4722 1.1344,-1.7314 1.681,-1.4121 1.681,0.98187 0,2.1728 0.76282,3.3528 3.091,4.7814 0.86292,0.52951 0.84798,0.56285 -0.26333,0.58733 -0.648,0.0143 -1.8456,-0.38099 -2.6612,-0.87835 z"
           inkscape:connector-curvature="0"
           style="fill:#a20000" />
        <path
           id="path3558"
           d="m 333.5,724.37 c -2.0971,-2.3024 -2.5275,-4.5949 -0.86274,-4.5949 0.44466,0 0.7217,0.42788 0.7217,1.1146 0,0.61304 0.42414,1.6538 0.94254,2.3129 1.6626,2.1136 0.97394,3.1167 -0.8015,1.1674 z m 49.374,-1.7222 c -1.5019,-2.1092 -1.2009,-4.7578 0.5407,-4.7578 0.76991,0 0.88906,0.21574 0.6485,1.1742 -0.16517,0.65809 0.0195,1.9262 0.42018,2.8852 0.87275,2.0888 0.87233,2.0671 0.0401,2.0671 -0.37115,0 -1.1134,-0.61595 -1.6494,-1.3688 z m -219.8,-30.52 c -0.75462,-0.75462 -0.15529,-2.8316 1.4052,-4.8698 0.29768,-0.3888 1.1741,-1.8733 1.9475,-3.2989 2.1757,-4.0102 4.7697,-8.6436 5.2767,-9.4254 0.25214,-0.3888 1.6622,-2.8276 3.1334,-5.4196 1.4712,-2.592 3.0594,-5.3489 3.5292,-6.1265 0.46986,-0.7776 1.5036,-2.5802 2.2971,-4.0058 0.79355,-1.4256 1.8527,-3.2282 2.3536,-4.0058 0.50092,-0.7776 1.9039,-3.2164 3.1178,-5.4196 1.2138,-2.2032 3.8206,-6.8362 5.7928,-10.295 1.9722,-3.4593 4.0219,-7.0646 4.5548,-8.0116 2.0734,-3.6843 3.4893,-6.1396 6.1567,-10.676 1.524,-2.592 3.2606,-5.7152 3.8591,-6.9406 0.59844,-1.2253 1.2937,-2.3549 1.545,-2.5103 0.25132,-0.15532 1.4001,-2.1218 2.5528,-4.3699 1.1527,-2.2481 3.3667,-6.2082 4.9199,-8.8002 1.5532,-2.592 3.1416,-5.3489 3.5296,-6.1265 0.38806,-0.7776 1.1901,-2.1893 1.7823,-3.1372 1.8824,-3.0129 4.14,-6.971 4.14,-7.2583 0,-0.31559 6.6228,-11.837 8.2466,-14.346 0.58707,-0.90719 1.746,-2.9134 2.5753,-4.4582 0.82936,-1.5448 1.8912,-3.3474 2.3596,-4.0058 0.46845,-0.65835 1.7535,-2.8936 2.8556,-4.9672 1.1021,-2.0736 2.685,-4.7245 3.5174,-5.8909 0.83246,-1.1664 3.1481,-5.1958 5.1459,-8.9541 1.9978,-3.7584 4.2524,-7.7877 5.0102,-8.9541 0.75781,-1.1664 1.467,-2.3328 1.5759,-2.592 0.10893,-0.2592 0.32787,-0.78938 0.48654,-1.1782 0.15866,-0.38879 0.91509,-1.6612 1.6809,-2.8276 0.76586,-1.1664 2.406,-4.0072 3.6447,-6.3129 1.2387,-2.3057 2.4671,-4.5324 2.7298,-4.9483 1.1858,-1.8777 4.3171,-7.3429 5.1088,-8.9164 0.48049,-0.95501 1.1446,-2.0545 1.4758,-2.4433 0.3312,-0.3888 1.302,-2.0854 2.1574,-3.7702 1.2481,-2.4584 5.5997,-9.973 8.2175,-14.19 0.2592,-0.4176 1.0774,-1.9021 1.8182,-3.2989 4.1782,-7.8778 10.104,-18.433 11.612,-20.684 0.95526,-1.4256 2.3241,-3.7584 3.0419,-5.184 1.46,-2.8997 1.5061,-2.9841 3.6083,-6.5978 0.8293,-1.4256 2.0327,-3.5463 2.6743,-4.7127 0.64154,-1.1664 1.4108,-2.4388 1.7094,-2.8276 0.29862,-0.38879 0.98751,-1.5552 1.5309,-2.592 2.7871,-5.318 7.7297,-14.065 9.8534,-17.437 0.81614,-1.296 2.8023,-4.8768 4.4138,-7.9575 1.6114,-3.0806 3.4252,-6.3677 4.0305,-7.3047 0.60533,-0.93696 2.1784,-3.7182 3.4956,-6.1806 1.3172,-2.4624 2.8229,-5.2193 3.3459,-6.1265 0.52302,-0.9072 1.1274,-1.9676 1.343,-2.3564 0.2156,-0.3888 0.63907,-1.131 0.94102,-1.6494 0.30196,-0.5184 0.80353,-1.4727 1.1146,-2.1207 0.31108,-0.648 1.2592,-2.2884 2.107,-3.6455 0.8478,-1.357 2.2353,-3.7653 3.0833,-5.3517 0.84804,-1.5864 2.0721,-3.8145 2.7201,-4.9513 1.2382,-2.1721 8.2935,-14.83 9.168,-16.448 2.1007,-3.8873 3.3968,-4.4576 4.552,-2.0029 0.39643,0.8424 1.3681,2.592 2.1592,3.888 2.3145,3.7915 7.9356,13.465 9.3112,16.023 0.69675,1.296 1.6626,2.9926 2.1463,3.7702 0.48369,0.7776 2.8218,5.019 5.1958,9.4254 2.374,4.4064 4.6143,8.3464 4.9784,8.7556 0.36416,0.40921 0.66341,0.93939 0.66501,1.1782 10e-4,0.23878 1.221,2.4842 2.7098,4.9899 1.4888,2.5057 3.3426,5.6867 4.1196,7.069 0.77702,1.3823 2.1978,3.8918 3.1573,5.5766 0.9595,1.6848 2.0391,3.5934 2.3991,4.2414 0.36001,0.64799 1.2503,2.2385 1.9785,3.5345 0.72817,1.296 2.9195,5.2183 4.8696,8.7162 1.9501,3.4979 4.1455,7.188 4.8787,8.2001 0.73321,1.0122 1.3331,2.0378 1.3331,2.2792 0,0.3446 5.364,9.997 7.5343,13.558 0.23697,0.3888 0.90509,1.651 1.4847,2.805 1.1032,2.1963 4.8099,8.7418 7.53,13.297 0.87716,1.4689 2.231,3.7988 3.0086,5.1776 0.7776,1.3788 2.1383,3.7822 3.0239,5.3409 0.88553,1.5587 2.2362,4.0004 3.0016,5.426 1.4186,2.6424 2.3129,4.1883 7.2168,12.475 1.5295,2.5847 3.4171,5.895 4.1947,7.3564 0.77759,1.4614 2.9657,5.3907 4.8625,8.7318 1.8968,3.3411 3.7867,6.711 4.1997,7.4886 0.41307,0.77759 0.92936,1.7319 1.1473,2.1207 0.21795,0.3888 0.59846,1.1732 0.84557,1.7431 0.24712,0.56993 1.1714,2.1605 2.0539,3.5345 0.88256,1.3741 3.3838,5.6743 5.5583,9.556 2.1745,3.8817 4.1657,7.4228 4.4249,7.8691 0.2592,0.44628 1.0758,1.9197 1.8146,3.2743 0.73885,1.3546 2.9783,5.4481 4.9765,9.0966 1.9982,3.6485 3.7813,6.9518 3.9625,7.3406 0.18115,0.3888 0.72107,1.3431 1.1998,2.1207 2.1652,3.5169 8.432,14.575 10.683,18.851 2.5064,4.7611 7.6556,14.043 10.772,19.417 0.93228,1.6076 2.891,5.2129 4.3527,8.0116 1.4617,2.7987 3.1596,5.7637 3.7731,6.5888 0.61352,0.8251 1.1155,1.7097 1.1155,1.9657 0,0.25605 1.0604,2.3016 2.3564,4.5457 1.296,2.2441 2.3564,4.1812 2.3564,4.3048 0,0.12356 1.1423,2.1745 2.5385,4.5577 2.3222,3.9639 5.4752,9.5842 8.7761,15.644 0.70601,1.296 1.8107,3.3107 2.455,4.4771 0.64422,1.1664 2.1516,3.9348 3.3498,6.152 1.1981,2.2172 3.4563,6.2432 5.0182,8.9466 1.5619,2.7034 2.8398,5.098 2.8398,5.3214 0,0.22334 0.39486,0.96899 0.87747,1.657 0.4826,0.68801 1.6206,2.6294 2.5289,4.3142 0.90828,1.6848 2.1493,3.9412 2.7578,5.0143 0.93957,1.6569 1.0114,2.0654 0.47664,2.7098 -0.57702,0.69525 -16.658,0.75878 -192.06,0.75878 -105.29,0 -191.58,-0.14138 -191.75,-0.31418 z m 314.26,-14.758 c 1.8144,-0.23772 5.9498,-0.5769 9.1898,-0.75372 3.24,-0.17683 6.156,-0.53154 6.48,-0.78824 0.98567,-0.78094 0.66397,-3.8892 -0.82472,-7.9683 -0.7776,-2.1307 -1.4138,-3.9446 -1.4138,-4.031 0,-0.0864 0.53017,-0.35867 1.1782,-0.60504 1.4887,-0.56602 1.4812,-1.2203 -0.0399,-3.4588 -1.2024,-1.7695 -1.2054,-1.7958 -0.23563,-2.0494 1.4214,-0.37171 1.2142,-1.2976 -0.72437,-3.2362 -1.5867,-1.5867 -1.6625,-1.7896 -1.0773,-2.883 0.57237,-1.0695 0.52412,-1.2582 -0.53174,-2.0791 l -1.1612,-0.90285 1.175,-0.91324 1.175,-0.91323 -2.6292,-2.5263 c -1.4461,-1.3895 -3.6184,-3.3368 -4.8274,-4.3275 -1.5577,-1.2764 -2.1981,-2.1469 -2.1981,-2.9877 0,-0.72924 -0.72649,-1.9747 -1.8851,-3.2316 -1.0368,-1.1248 -1.8851,-2.342 -1.8851,-2.7048 0,-0.36286 -0.3125,-0.91908 -0.69444,-1.2361 -0.38194,-0.31698 -0.83012,-1.2996 -0.99596,-2.1836 -0.16584,-0.88401 -0.48956,-1.7235 -0.71938,-1.8655 -0.22981,-0.14203 -0.41785,-1.0516 -0.41785,-2.0213 0,-0.96965 -0.25358,-2.0166 -0.56352,-2.3265 -0.30994,-0.30993 -0.51529,-1.3812 -0.45632,-2.3805 0.0687,-1.1651 -0.15176,-2.0319 -0.61465,-2.416 -0.39702,-0.3295 -0.72186,-1.113 -0.72186,-1.7412 0,-0.62813 -0.53018,-2.138 -1.1782,-3.3552 -0.648,-1.2173 -1.1782,-2.738 -1.1782,-3.3793 0,-2.053 -5.1824,-16.557 -8.0054,-22.405 -1.5015,-3.1104 -3.6017,-6.8069 -4.667,-8.2145 -1.0653,-1.4076 -1.937,-2.703 -1.937,-2.8787 0,-0.74176 -8.2694,-7.4357 -12.101,-9.7958 -7.3124,-4.5038 -10.532,-5.6238 -24.772,-8.6166 -2.9506,-0.62014 -16.661,-0.30762 -21.8,0.49692 -4.1742,0.65349 -12.632,1.8377 -17.201,2.4085 -2.2032,0.27519 -5.5088,0.73546 -7.3457,1.0228 l -3.3399,0.52244 -4.1553,-2.0682 c -3.886,-1.9341 -4.4499,-2.08 -8.7005,-2.2507 -5.371,-0.21573 -10.155,0.44505 -15.338,2.1187 -3.7279,1.2036 -3.9234,1.2164 -17.437,1.1374 -12.56,-0.0734 -29.545,0.49482 -35.395,1.184 -2.2123,0.26065 -2.5393,0.1661 -4.068,-1.1761 -2.3354,-2.0505 -3.2267,-1.8798 -5.778,1.1065 -1.9647,2.2998 -2.4698,2.6202 -4.867,3.0885 -6.7488,1.3182 -11.864,3.4344 -11.864,4.9081 0,1.0605 -1.516,2.0018 -7.6744,4.7649 -3.3137,1.4868 -6.3357,3.147 -6.7156,3.6894 -1.8228,2.6024 -0.13877,5.7224 4.3603,8.078 1.7579,0.92041 3.9144,2.1048 4.7922,2.6319 3.8086,2.2872 7.6097,3.3066 18.433,4.9433 11.447,1.7309 18.49,3.1051 24.035,4.6895 3.24,0.92575 7.439,2.0731 9.3312,2.5496 1.8922,0.47653 3.5252,0.95137 3.6291,1.0552 0.10382,0.10382 -0.57218,2.5144 -1.5022,5.3568 -1.5298,4.6753 -1.7119,5.797 -1.9103,11.766 -0.15429,4.6419 -0.40999,6.8134 -0.86256,7.3251 -1.6335,1.8469 -6.788,13.649 -7.7095,17.652 -1.6949,7.3633 -2.8021,10.194 -5.2531,13.431 -1.2756,1.6848 -2.8576,3.8668 -3.5155,4.8488 -1.3367,1.9955 -2.3726,2.5055 -6.8337,3.3644 -1.6943,0.3262 -3.709,0.8943 -4.4771,1.2624 -1.2969,0.62157 -1.3966,0.85392 -1.3966,3.255 0,2.4888 0.0618,2.6156 1.6494,3.3841 5.4326,2.6299 19.295,3.9768 25.767,2.5036 3.884,-0.88408 4.5865,-1.6049 4.9758,-5.1051 0.17682,-1.5899 0.63043,-2.6684 1.5074,-3.5837 0.68993,-0.72014 1.4242,-1.9234 1.6318,-2.674 0.28707,-1.0381 0.62597,-1.3367 1.4163,-1.248 0.77619,0.0872 1.1611,-0.23359 1.5217,-1.2682 0.3463,-0.99339 0.83727,-1.426 1.7368,-1.5305 1.0535,-0.12232 1.3008,-0.43603 1.5468,-1.962 0.28394,-1.7612 1.0016,-2.6386 2.1704,-2.6535 0.31187,-0.004 0.98214,-0.94562 1.4895,-2.0926 0.72733,-1.6442 1.1978,-2.1178 2.2242,-2.2385 0.96528,-0.11358 1.4218,-0.51866 1.7661,-1.567 0.25535,-0.7776 0.83067,-1.674 1.2785,-1.9919 0.44782,-0.31795 0.94078,-1.0824 1.0955,-1.6987 0.15469,-0.61633 1.1332,-2.0527 2.1746,-3.1919 1.3532,-1.4803 1.8933,-2.4859 1.8933,-3.5245 0,-1.8354 0.33895,-2.1711 1.479,-1.4648 1.1975,0.74189 1.934,-0.30285 1.5976,-2.2663 -0.13729,-0.80123 0.0626,-1.9987 0.46128,-2.7637 0.38694,-0.74242 0.70353,-1.8384 0.70353,-2.4356 0,-1.78 0.5083,-2.5767 1.6439,-2.5767 0.67113,0 1.5422,-0.61665 2.3299,-1.6494 0.90002,-1.18 1.6268,-1.6494 2.5537,-1.6494 0.71256,0 1.5595,-0.26396 1.8822,-0.58658 0.46794,-0.46794 0.91511,-0.2058 2.2107,1.296 2.0367,2.3608 5.9533,10.253 7.2488,14.607 1.876,6.3049 3.0554,21.765 1.9107,25.049 -0.6262,1.7963 -2.5338,2.8925 -6.9572,3.9979 -5.2376,1.3089 -6.4278,2.1279 -6.605,4.5451 -0.13088,1.7851 0.002,2.063 1.4138,2.9562 1.3966,0.88356 2.0473,0.95988 6.271,0.73551 2.592,-0.13769 8.1692,-0.0176 12.394,0.26677 9.4554,0.63659 9.9886,0.48809 9.998,-2.7842 0.01,-3.4439 0.38797,-4.3214 2.0516,-4.7618 1.5534,-0.41116 1.7129,-0.95562 1.0223,-3.4885 -0.30453,-1.1169 -0.1808,-1.3538 0.92706,-1.775 1.1718,-0.44549 1.2511,-0.63298 0.95042,-2.2456 -0.18045,-0.96774 -0.36245,-1.9716 -0.40445,-2.2308 -0.042,-0.25919 0.50681,-0.53837 1.2196,-0.62039 1.4305,-0.16459 1.5237,-0.50096 0.80901,-2.9172 -0.43307,-1.4641 -0.58525,-4.5851 -0.48725,-9.993 0.0211,-1.1646 0.37737,-2.071 1.0663,-2.7128 1.0178,-0.9482 1.0216,-1.0002 0.2333,-3.1994 -0.99067,-2.764 -1.0016,-3.5995 -0.0571,-4.3833 0.57093,-0.47383 0.66986,-1.1199 0.43403,-2.8345 -0.38015,-2.7641 0.18336,-3.197 2.3878,-1.8346 1.4736,0.91073 1.822,0.95779 3.1176,0.42114 1.3642,-0.56506 1.5181,-0.5225 2.3775,0.65725 1.0663,1.4638 1.6163,1.5582 2.8061,0.48148 0.80194,-0.72574 0.92172,-0.72574 1.7237,0 0.93649,0.84751 2.2293,1.0261 2.6382,0.3645 0.56276,-0.91055 8.65,4.1172 9.6609,6.006 0.29249,0.54652 0.35979,5.1376 0.18129,12.367 l -0.28391,11.497 -1.794,1.6741 c -1.0744,1.0026 -2.8839,2.0177 -4.5112,2.5306 -4.2888,1.3519 -4.868,1.8886 -4.868,4.5102 0,1.2791 0.26639,2.4655 0.61936,2.7585 2.0426,1.6952 14.199,2.5841 20.191,1.4764 2.2008,-0.40684 3.0717,-0.3348 5.624,0.46519 3.3805,1.0596 5.2374,1.1924 6.5854,0.47088 0.71244,-0.38129 0.91156,-0.99656 0.91156,-2.8168 0,-1.9439 0.18863,-2.4525 1.141,-3.0765 1.0412,-0.68219 1.1178,-0.97256 0.87588,-3.3168 -0.21058,-2.0404 -0.0962,-2.7559 0.55572,-3.4762 0.77812,-0.85982 0.7787,-1.0341 0.0111,-3.345 -0.44536,-1.3409 -1.0941,-2.986 -1.4416,-3.6559 -0.68069,-1.312 -0.20028,-2.4458 1.0363,-2.4458 0.80163,0 0.82385,-1.2186 0.0734,-4.0244 -0.67881,-2.538 -0.26471,-3.0258 2.5787,-3.0374 1.466,-0.006 1.7673,-0.17218 1.7673,-0.97476 0,-0.53215 -0.53017,-1.7478 -1.1782,-2.7014 -0.648,-0.95361 -1.1782,-1.8967 -1.1782,-2.0957 0,-0.61007 1.652,-0.40195 2.6197,0.33005 1.3123,0.99253 2.3019,0.88182 3.8635,-0.43222 l 1.3716,-1.1541 1.61,1.0932 c 0.88551,0.60129 2.9885,1.8497 4.6733,2.7744 2.2515,1.2356 5.2004,3.7988 11.128,9.6723 4.4355,4.3952 8.921,8.558 9.9678,9.2507 3.2693,2.1635 2.96,3.2878 -1.9226,6.9892 -1.6136,1.2232 -1.7361,1.4909 -1.7361,3.7937 0,1.3627 0.25448,2.7321 0.56552,3.0432 0.67723,0.67723 7.1142,0.73254 11.923,0.10245 z m -96.92,-321.75 c -2.0087,-0.30863 -2.8353,-1.6019 -2.6688,-4.1753 0.18653,-2.8831 1.3238,-3.4791 1.3238,-0.6937 0,2.0624 1.5689,4.2593 3.0418,4.2593 0.40058,0 0.72833,0.21208 0.72833,0.47127 0,0.47572 -0.16777,0.4853 -2.4252,0.13845 z m -52.621,-2.7253 c -1.5026,-1.2644 -2.0832,-2.9962 -1.4085,-4.2017 0.70799,-1.2651 1.3164,-0.84034 1.3164,0.91903 0,1.1539 0.36453,2.0354 1.1782,2.849 1.9875,1.9875 1.1554,2.3197 -1.0861,0.43359 z"
           inkscape:connector-curvature="0"
           style="fill:#5b0000" />
        <path
           id="path3556"
           d="m 383.14,722.12 c -0.86223,-1.4596 -0.76335,-3.7587 0.16165,-3.7587 0.24613,0 0.32397,0.32192 0.17299,0.71537 -0.15098,0.39345 -0.017,1.337 0.29768,2.0968 0.82702,1.9966 0.38172,2.6632 -0.63232,0.94652 z m -50.894,-0.68031 c -0.14601,-0.3805 -0.0627,-0.81716 0.18522,-0.97035 0.24788,-0.1532 0.45069,0.15811 0.45069,0.69181 0,1.1379 -0.26208,1.2527 -0.63591,0.27854 z m -168.84,-30.149 c -0.24597,-0.64098 2.8106,-6.3404 9.5359,-17.781 1.6259,-2.7659 3.6165,-6.2651 4.4235,-7.776 0.80696,-1.5108 2.2499,-4.0537 3.2066,-5.6509 1.8843,-3.1457 5.5362,-9.5672 10.614,-18.663 1.7705,-3.1716 3.6985,-6.5088 4.2845,-7.416 0.586,-0.90719 2.7427,-4.5948 4.7926,-8.1947 2.0499,-3.5999 4.7244,-8.2655 5.9434,-10.368 1.2189,-2.1025 3.1755,-5.6253 4.3478,-7.8285 1.1724,-2.2032 3.4059,-6.1265 4.9635,-8.7185 1.5576,-2.592 3.3123,-5.5928 3.8994,-6.6684 1.1684,-2.1406 4.6559,-8.2805 10.207,-17.969 1.9719,-3.442 4.4001,-7.6834 5.3959,-9.4254 0.99585,-1.742 2.5138,-4.2478 3.3732,-5.5685 0.85938,-1.3207 2.2441,-3.7595 3.0772,-5.4196 0.83308,-1.6601 2.1999,-3.9726 3.0373,-5.139 0.83743,-1.1664 3.1572,-5.1958 5.155,-8.9541 1.9978,-3.7584 4.2525,-7.7877 5.0104,-8.9541 0.75787,-1.1664 1.6374,-2.6509 1.9545,-3.2989 0.31709,-0.648 1.2734,-2.2935 2.1252,-3.6567 0.85175,-1.3632 2.4066,-4.1201 3.4552,-6.1265 1.0486,-2.0064 3.0563,-5.5566 4.4615,-7.8894 1.4052,-2.3328 2.9261,-4.9837 3.3797,-5.8909 0.45363,-0.9072 1.0724,-1.9676 1.3752,-2.3564 0.3027,-0.3888 1.5259,-2.5555 2.7182,-4.815 1.1923,-2.2594 3.922,-7.0751 6.066,-10.702 2.144,-3.6264 5.9963,-10.473 8.5608,-15.214 2.5644,-4.7413 5.45,-9.7869 6.4123,-11.212 0.96236,-1.4256 2.824,-4.6067 4.137,-7.0691 1.313,-2.4624 3.4582,-6.2797 4.7671,-8.4829 1.3089,-2.2032 2.9427,-5.0662 3.6307,-6.3622 1.9983,-3.7643 7.186,-12.963 8.9033,-15.788 0.86686,-1.4256 3.0666,-5.3891 4.8884,-8.8077 1.8218,-3.4186 3.8285,-7.0239 4.4594,-8.0116 0.6309,-0.98773 2.7101,-4.616 4.6205,-8.0628 1.9104,-3.4468 3.8031,-6.84 4.2061,-7.5403 0.40297,-0.70037 1.4165,-2.5458 2.2523,-4.101 0.8358,-1.5552 2.5208,-4.573 3.7444,-6.7063 1.2236,-2.1333 4.7648,-8.4464 7.8694,-14.029 5.6359,-10.135 7.6474,-13.181 8.0645,-12.213 0.1213,0.28166 1.2218,2.1315 2.4455,4.1108 1.2237,1.9793 3.7779,6.3084 5.676,9.6202 1.8981,3.3118 4.3703,7.6121 5.4938,9.556 1.1235,1.944 3.5888,6.3975 5.4784,9.8967 1.8896,3.4992 4.9078,8.907 6.7071,12.017 3.7041,6.4033 6.1483,10.73 9.7172,17.201 1.358,2.4624 2.6312,4.6891 2.8293,4.9483 0.19811,0.2592 2.5458,4.3946 5.217,9.1898 2.6712,4.7952 5.2163,9.2487 5.6556,9.8967 0.81812,1.2067 4.681,8.104 12.009,21.443 2.2784,4.1472 4.4089,7.8584 4.7343,8.2472 0.32544,0.3888 1.6404,2.6156 2.922,4.9483 4.0036,7.2871 9.1013,16.384 10.695,19.086 3.3828,5.735 6.8102,11.685 8.1439,14.138 0.77512,1.4256 2.7334,4.9248 4.3518,7.776 1.6183,2.8512 3.9962,7.173 5.2842,9.6039 1.288,2.431 3.0371,5.506 3.887,6.8334 0.8499,1.3274 3.1968,5.3825 5.2154,9.0113 2.0186,3.6288 4.9875,8.9306 6.5975,11.782 1.61,2.8512 4.1568,7.5168 5.6595,10.368 1.5027,2.8512 4.0566,7.4107 5.6753,10.132 3.274,5.5045 10.11,17.776 10.11,18.148 0,0.13162 1.1987,2.3052 2.6638,4.8301 1.4651,2.5249 3.7698,6.6055 5.1216,9.0679 1.3518,2.4624 4.1448,7.5521 6.2066,11.31 2.0618,3.7584 4.3946,7.9998 5.184,9.4254 0.78938,1.4256 2.6002,4.7127 4.024,7.3047 1.4238,2.592 3.2808,5.8791 4.1265,7.3047 0.84574,1.4256 3.391,5.9851 5.6561,10.132 8.2889,15.176 11.895,21.689 12.262,22.15 0.20686,0.2592 1.3218,2.2739 2.4777,4.4771 1.1559,2.2032 3.1098,5.8084 4.3422,8.0116 1.2323,2.2032 2.5254,4.5248 2.8735,5.1591 0.45869,0.83599 0.49267,1.3223 0.12333,1.7673 -0.41702,0.50252 -35.175,0.61391 -191.57,0.61391 -165.93,0 -191.09,-0.0893 -191.32,-0.67921 z m 313.45,-13.451 c 1.8144,-0.23772 5.9498,-0.5731 9.1898,-0.74528 3.8488,-0.20453 6.2689,-0.55005 6.9813,-0.99674 1.0036,-0.62927 1.0647,-0.89696 0.76732,-3.3629 -0.17772,-1.4736 -0.82747,-3.9352 -1.4439,-5.4703 -0.61643,-1.5351 -1.1208,-2.9325 -1.1208,-3.1054 0,-0.17291 0.53017,-0.55594 1.1782,-0.85119 0.648,-0.29525 1.1782,-0.72383 1.1782,-0.95242 0,-0.22858 -0.53018,-1.1969 -1.1782,-2.1518 -1.4158,-2.0864 -1.4066,-1.9959 -0.23563,-2.3021 1.3441,-0.35149 1.1796,-1.0121 -0.79635,-3.1993 -1.5355,-1.6996 -1.6692,-2.0363 -1.143,-2.879 0.51258,-0.82078 0.44313,-1.1168 -0.49668,-2.1172 -1.011,-1.0762 -1.0312,-1.1974 -0.27084,-1.6229 1.5282,-0.85522 0.8321,-2.0511 -3.2578,-5.597 -5.3726,-4.6579 -5.3476,-4.631 -5.0385,-5.4367 0.15461,-0.40289 -0.40037,-1.4497 -1.316,-2.4823 -1.4016,-1.5806 -2.5825,-3.6543 -4.7171,-8.2836 -0.3443,-0.74667 -0.56065,-1.8562 -0.48078,-2.4658 0.0799,-0.60948 -0.18817,-1.5841 -0.59563,-2.1659 -0.48019,-0.68556 -0.64482,-1.5697 -0.46788,-2.5128 0.18949,-1.0101 0.0458,-1.6437 -0.46995,-2.0717 -0.4086,-0.33911 -0.74292,-1.1278 -0.74292,-1.7527 0,-0.62488 -0.53018,-2.1824 -1.1782,-3.4612 -0.648,-1.2788 -1.1782,-2.8823 -1.1782,-3.5634 0,-1.3441 -2.4174,-8.7965 -5.0153,-15.461 -2.363,-6.062 -5.531,-12.162 -8.2766,-15.937 -4.2903,-5.8987 -13.325,-12.843 -21.582,-16.587 -5.1591,-2.3397 -15.02,-4.4896 -22.286,-4.8586 -4.7892,-0.24328 -15.989,0.49972 -19.545,1.2966 -1.1228,0.25163 -4.6294,0.76594 -7.7924,1.1429 -3.163,0.37696 -7.3414,0.90556 -9.2854,1.1747 -8.4995,1.1766 -7.5097,1.2555 -12.317,-0.9827 -3.9337,-1.8315 -4.8554,-2.0733 -8.4818,-2.2248 -4.8869,-0.20413 -9.6185,0.47302 -15.018,2.1493 -3.9784,1.2351 -4.0975,1.2428 -17.437,1.1319 -12.197,-0.10142 -27.34,0.39594 -35.386,1.1622 -2.9898,0.28474 -3.1654,0.24166 -4.7749,-1.1715 -0.91902,-0.80691 -1.879,-1.4671 -2.1333,-1.4671 -0.25431,0 -1.4715,1.0789 -2.705,2.3975 -2.2139,2.3668 -4.8236,3.729 -7.1443,3.729 -0.62027,0 -2.6613,0.52647 -4.5356,1.1699 -2.7148,0.93201 -3.7998,1.6068 -5.3354,3.3182 -1.5254,1.7 -3.0986,2.6843 -7.5403,4.7173 -5.4636,2.5008 -8.2048,4.5511 -8.2048,6.1371 0,0.39504 0.42785,1.5569 0.95078,2.5819 0.72521,1.4215 1.6131,2.198 3.7424,3.2729 1.5354,0.77505 3.7893,2.0419 5.0088,2.8153 2.9416,1.8655 7.7305,3.6187 11.505,4.2118 1.6848,0.26477 4.9719,0.78826 7.3047,1.1633 2.3328,0.37507 6.6803,1.0493 9.661,1.4983 5.4182,0.8161 15.17,3.1189 20.5,4.8408 1.5552,0.50244 3.748,1.0681 4.8728,1.2571 1.6105,0.27054 1.991,0.5085 1.7903,1.1197 -3.2155,9.7917 -3.2815,10.106 -3.4184,16.28 l -0.13481,6.0786 -3.2699,6.41 c -3.4626,6.7877 -4.8142,10.293 -5.7427,14.893 -1.0178,5.0423 -2.7202,8.8028 -5.9208,13.079 -1.698,2.2686 -3.5047,4.348 -4.0148,4.621 -0.51009,0.27299 -2.5506,0.80691 -4.5344,1.1865 -1.9838,0.37957 -4.2556,1.0676 -5.0483,1.529 -1.2279,0.71466 -1.4623,1.1578 -1.5825,2.9924 -0.12463,1.9018 0.0251,2.2934 1.2814,3.3505 1.4187,1.1938 3.822,2.0953 8.2852,3.1079 3.6326,0.82416 16.507,0.89965 19.217,0.11268 2.8955,-0.84104 4.5823,-2.7657 4.5823,-5.2286 0,-1.3719 0.39534,-2.2775 1.6494,-3.7786 0.90719,-1.0858 1.6494,-2.3642 1.6494,-2.8409 0,-0.59511 0.40607,-0.91338 1.296,-1.0158 0.92793,-0.10678 1.3388,-0.45026 1.4466,-1.2095 0.10831,-0.76259 0.46759,-1.0604 1.2794,-1.0604 1.2605,0 2.1045,-1.2058 2.1045,-3.0066 0,-0.82604 0.39108,-1.3709 1.295,-1.8041 0.71223,-0.34136 1.7337,-1.4663 2.27,-2.4999 0.71008,-1.3686 1.3415,-1.9433 2.3237,-2.1149 0.99418,-0.17369 1.4436,-0.59082 1.7098,-1.5869 0.19864,-0.74319 0.797,-1.6565 1.3297,-2.0296 0.53269,-0.37311 0.96853,-1.0822 0.96853,-1.5758 0,-0.4936 0.41,-1.2794 0.91112,-1.7463 1.6639,-1.5502 3.4053,-4.5054 3.1746,-5.3875 -0.28804,-1.1015 0.46379,-1.5915 1.3338,-0.86944 1.063,0.88224 1.6494,0.10736 1.6494,-2.1795 0,-1.1681 0.25347,-2.5871 0.56328,-3.1533 0.3098,-0.56615 0.68276,-1.8777 0.8288,-2.9145 0.22409,-1.5908 0.42299,-1.8633 1.2744,-1.7457 0.69802,0.0965 1.3431,-0.33911 2.0939,-1.4138 1.3749,-1.9681 1.869,-2.3021 2.9204,-1.9748 0.46603,0.1451 1.183,-0.0148 1.5933,-0.35525 0.6401,-0.53124 0.9585,-0.37315 2.2444,1.1144 3.4846,4.0311 7.8477,15.328 8.5154,22.048 0.44795,4.5078 0.78495,15.198 0.52311,16.594 -0.40056,2.1352 -1.5562,2.9028 -6.267,4.1628 -5.3937,1.4426 -7.42,2.6743 -7.6075,4.6243 -0.16928,1.7602 0.72899,3.0322 2.954,4.1827 1.1087,0.57333 2.3213,0.65548 5.968,0.40432 2.5171,-0.17337 7.8999,-0.0663 11.962,0.23793 7.0919,0.53117 7.435,0.51601 8.6424,-0.38187 0.98026,-0.72894 1.2847,-1.392 1.3816,-3.0086 0.21005,-3.5047 0.49154,-4.1943 1.7121,-4.1943 1.7107,0 2.373,-1.0945 1.7477,-2.8881 -0.72535,-2.0807 -0.68023,-2.2586 0.70668,-2.7859 1.2582,-0.47835 1.2865,-0.77686 0.36782,-3.8692 -0.18917,-0.63674 0.0342,-0.82472 0.97971,-0.82472 1.6158,0 1.8675,-0.84093 1.0789,-3.6051 -0.40928,-1.4346 -0.60419,-4.0067 -0.52339,-6.9069 0.11503,-4.1289 0.24082,-4.7119 1.1811,-5.4732 l 1.0523,-0.85213 -1.0571,-2.7624 c -1.0122,-2.6451 -1.021,-2.7887 -0.20779,-3.3836 0.66708,-0.48799 0.82526,-1.173 0.73724,-3.1927 -0.12059,-2.7667 0.16168,-3.0238 1.9982,-1.8205 0.82357,0.53962 1.6709,0.66228 3.0111,0.43585 1.5603,-0.26362 1.9457,-0.16437 2.3588,0.60741 0.70948,1.3257 1.9334,1.651 2.9046,0.77216 0.76601,-0.69323 0.93246,-0.69108 2.0272,0.0263 0.86317,0.56557 1.4227,0.65275 2.0253,0.31553 0.91158,-0.51014 4.1526,0.89776 7.2297,3.1405 2.9225,2.1301 2.8254,1.6207 2.5655,13.465 -0.13135,5.9856 -0.23214,11.275 -0.22399,11.755 0.0259,1.5237 -2.9032,3.9394 -5.7965,4.7806 -3.7411,1.0876 -5.4991,2.6576 -5.4991,4.9109 0,2.4331 1.523,3.7489 5.2693,4.5524 3.6312,0.77884 11.732,0.85744 15.776,0.15308 2.6185,-0.45599 3.3732,-0.39897 6.2383,0.47127 3.8908,1.1818 4.3958,1.2039 6.1998,0.271 1.2396,-0.64104 1.3904,-0.9585 1.3904,-2.9277 0,-1.7542 0.23373,-2.4063 1.1358,-3.169 1.0433,-0.88205 1.1067,-1.1699 0.77853,-3.5347 -0.31469,-2.2674 -0.24311,-2.6669 0.60004,-3.3497 0.95577,-0.77393 0.95487,-0.78145 -0.54289,-4.5347 -0.82514,-2.0677 -1.5002,-3.8858 -1.5002,-4.0401 0,-0.15431 0.47716,-0.34834 1.0604,-0.43116 0.8825,-0.12534 1.0508,-0.42726 1.0031,-1.8 -0.0315,-0.90719 -0.21624,-2.432 -0.41055,-3.3886 l -0.35328,-1.7391 2.2914,-0.14597 c 2.8344,-0.18057 3.1529,-1.0517 1.3699,-3.7461 -1.6222,-2.4513 -1.3744,-2.9943 0.82788,-1.8139 1.8706,1.0026 2.755,0.84672 4.6717,-0.82317 0.7101,-0.61867 0.94701,-0.59463 2.1207,0.21519 0.72672,0.50141 2.7789,1.7153 4.5604,2.6976 2.3562,1.2991 5.3773,3.8582 11.084,9.3886 4.3145,4.1815 8.848,8.4916 10.074,9.578 3.108,2.7534 3.0577,3.0149 -1.187,6.172 -2.6648,1.982 -2.7098,2.0544 -2.7098,4.3566 0,3.5201 0.93379,4.2302 5.5374,4.2108 2.0088,-0.008 5.1368,-0.20992 6.9512,-0.44765 z m -97.95,-323.69 c -0.42897,-0.47401 -0.77995,-1.3519 -0.77995,-1.9508 0,-0.96527 0.13388,-0.89174 1.1782,0.64712 0.64799,0.95488 1.1782,1.8328 1.1782,1.9508 0,0.50162 -0.85411,0.151 -1.5764,-0.64713 z m -51.972,-3.1284 c -0.14592,-0.38025 -0.17436,-0.96344 -0.0632,-1.296 0.11116,-0.33255 0.31383,-0.0214 0.45037,0.69136 0.26662,1.3918 0.0467,1.7352 -0.38717,0.60463 z"
           inkscape:connector-curvature="0" />
      </g>
    </g>
  </g>
</svg>
